<?xml version="1.0" encoding="UTF-8" standalone="no"?>
<!-- Created with Inkscape (http://www.inkscape.org/) -->

<svg
   width="98.0mm"
   height="98.0mm"
   viewBox="0 0 98.000000 98.000000"
   version="1.1"
   id="svg8"
   inkscape:version="1.1 (c68e22c387, 2021-05-23)"
   sodipodi:docname="Seegeist_RGB.svg"
   xmlns:inkscape="http://www.inkscape.org/namespaces/inkscape"
   xmlns:sodipodi="http://sodipodi.sourceforge.net/DTD/sodipodi-0.dtd"
   xmlns="http://www.w3.org/2000/svg"
   xmlns:svg="http://www.w3.org/2000/svg"
   xmlns:rdf="http://www.w3.org/1999/02/22-rdf-syntax-ns#"
   xmlns:cc="http://creativecommons.org/ns#"
   xmlns:dc="http://purl.org/dc/elements/1.1/">
  <sodipodi:namedview
     id="base"
     pagecolor="#ffffff"
     bordercolor="#666666"
     borderopacity="1.0"
     inkscape:pageopacity="0.0"
     inkscape:pageshadow="2"
     inkscape:zoom="1.979899"
     inkscape:cx="121.72338"
     inkscape:cy="155.31095"
     inkscape:document-units="mm"
     inkscape:current-layer="g825"
     showgrid="false"
     inkscape:window-width="1920"
     inkscape:window-height="1017"
     inkscape:window-x="-8"
     inkscape:window-y="-8"
     inkscape:window-maximized="1"
     borderlayer="true"
     inkscape:pagecheckerboard="0"
     showguides="true"
     inkscape:guide-bbox="true"
     inkscape:snap-global="false">
    <inkscape:grid
       id="grid816"
       units="mm"
       type="xygrid"
       empspacing="1"
       spacingy="2.54"
       spacingx="2.54" />
    <sodipodi:guide
       position="107.15625,91.385415"
       orientation="1,0"
       id="guide889" />
    <sodipodi:guide
       position="-19.276785,89.826263"
       orientation="1,0"
       id="guide1066" />
    <sodipodi:guide
       position="50.932291,78.250743"
       orientation="1,0"
       id="guide1639" />
  </sodipodi:namedview>
  <defs
     id="defs2" />
  <metadata
     id="metadata5">
    <rdf:RDF>
      <cc:Work
         rdf:about="">
        <dc:format>image/svg+xml</dc:format>
        <dc:type
           rdf:resource="http://purl.org/dc/dcmitype/StillImage" />
      </cc:Work>
    </rdf:RDF>
  </metadata>
  <g
     id="layer1"
     inkscape:groupmode="layer"
     inkscape:label="Ebene 1"
     style="display:inline" />
  <g
     style="display:inline"
     id="g823"
     sodipodi:insensitive="true"
     inkscape:groupmode="layer"
     inkscape:label="[fixed] BG">
    <rect
       id="rect821"
       style="fill:#ffffff;fill-opacity:1;stroke:none"
       height="98"
       width="98"
       y="0"
       x="0" />
  </g>
  <g
     id="g825"
     inkscape:groupmode="layer"
     inkscape:label="Edge.Cuts"
     style="display:inline">
    <path
       id="path945"
       style="fill:none;fill-opacity:1;stroke:#000000;stroke-width:0.120128;stroke-opacity:1"
       d="M 34.5999 27.4961 L 34.4448 28.0663 L 34.3083 28.6518 L 34.1733 29.2425 L 34.0231 29.8283 L 33.8409 30.3989 L 33.7325 30.6753 L 33.6098 30.9442 L 33.4707 31.2041 L 33.3131 31.454 L 33.1348 31.6924 L 32.9338 31.9182 L 32.6633 32.1078 L 32.3816 32.2715 L 32.0899 32.411 L 31.7894 32.5276 L 31.4811 32.623 L 31.1663 32.6987 L 30.8461 32.7562 L 30.5216 32.7971 L 29.8646 32.835 L 29.2045 32.8248 L 28.5506 32.7787 L 27.9121 32.709 L 27.0218 32.5666 L 26.132 32.4041 L 24.3508 32.0735 L 23.4578 31.9328 L 22.5622 31.8266 L 21.663 31.7688 L 21.2119 31.7622 L 20.7595 31.7729 L 20.3551 31.8162 L 19.9644 31.898 L 19.5882 32.0158 L 19.2269 32.1672 L 18.8812 32.3498 L 18.5516 32.5612 L 18.2386 32.799 L 17.9429 33.0607 L 17.6651 33.344 L 17.4056 33.6464 L 17.1651 33.9656 L 16.9441 34.2991 L 16.7432 34.6445 L 16.563 34.9993 L 16.404 35.3613 L 16.2669 35.7279 L 15.9759 36.6759 L 15.7153 37.6326 L 15.478 38.596 L 15.257 39.5638 L 14.835 41.5042 L 14.62 42.4725 L 14.3927 43.4367 L 13.3629 47.9418 L 13.1187 49.0711 L 12.8906 50.2029 L 12.6839 51.3381 L 12.5039 52.4773 L 12.5224 52.7607 L 12.5682 53.0359 L 12.6397 53.3021 L 12.7354 53.5588 L 12.8536 53.8053 L 12.9926 54.041 L 13.1509 54.2652 L 13.3268 54.4774 L 13.5187 54.6768 L 13.725 54.8628 L 13.9441 55.0348 L 14.1743 55.1922 L 14.414 55.3343 L 14.6616 55.4604 L 14.9155 55.57 L 15.174 55.6624 L 15.7588 55.9289 L 16.355 56.1752 L 17.5576 56.6503 L 18.1519 56.9008 L 18.7334 57.1744 L 19.2962 57.4819 L 19.834 57.834 L 19.8257 58.1834 L 19.7692 58.5258 L 19.6796 58.8637 L 19.5721 59.1996 L 19.4618 59.5358 L 19.3638 59.8751 L 19.2934 60.2197 L 19.2656 60.5723 L 19.2445 60.9231 L 19.2535 61.2734 L 19.2916 61.6211 L 19.3578 61.9643 L 19.4513 62.3008 L 19.5711 62.6287 L 19.7161 62.946 L 19.8856 63.2505 L 20.0786 63.5403 L 20.294 63.8133 L 20.531 64.0675 L 20.7886 64.3009 L 21.0659 64.5114 L 21.362 64.6971 L 21.6758 64.8558 L 22.0064 64.9856 L 22.2987 65.1061 L 22.5996 65.2113 L 23.2194 65.3899 L 23.8508 65.5482 L 24.4786 65.7135 L 25.0878 65.9127 L 25.3806 66.0335 L 25.6632 66.1729 L 25.9335 66.3343 L 26.1897 66.5211 L 26.43 66.7367 L 26.6523 66.9844 L 26.7266 67.2058 L 26.7745 67.4312 L 26.8004 67.6599 L 26.8084 67.8913 L 26.7876 68.3594 L 26.7457 68.8305 L 26.7162 69.2993 L 26.7167 69.5313 L 26.7328 69.7609 L 26.7689 69.9873 L 26.8291 70.2099 L 26.9176 70.4281 L 27.0386 70.6413 L 27.2444 71.0544 L 27.4946 71.4362 L 27.785 71.7851 L 28.111 72.1 L 28.4685 72.3793 L 28.8528 72.6217 L 29.2598 72.8257 L 29.685 72.99 L 30.1241 73.1132 L 30.5726 73.1939 L 31.0262 73.2307 L 31.4806 73.2221 L 31.9313 73.1669 L 32.374 73.0636 L 32.8043 72.9108 L 33.2178 72.7071 L 33.6345 72.5529 L 34.0864 72.4333 L 34.5557 72.3619 L 34.7913 72.3486 L 35.0244 72.3526 L 35.2529 72.3755 L 35.4744 72.419 L 35.6868 72.485 L 35.8879 72.5751 L 36.0753 72.691 L 36.2468 72.8345 L 36.4002 73.0072 L 36.5332 73.2109 L 36.5384 73.5623 L 36.4967 73.9088 L 36.4207 74.2518 L 36.3231 74.5928 L 36.1135 75.2747 L 36.0269 75.6185 L 35.9691 75.9662 L 35.917 76.2428 L 35.8894 76.5505 L 35.8854 76.8841 L 35.9041 77.2382 L 35.9446 77.6076 L 36.0059 77.987 L 36.0872 78.371 L 36.1873 78.7544 L 36.3055 79.1319 L 36.4408 79.4982 L 36.5923 79.848 L 36.7589 80.176 L 36.9399 80.477 L 37.1342 80.7456 L 37.3409 80.9765 L 37.5591 81.1645 L 38.3103 81.4739 L 39.0846 81.7592 L 39.8802 82.0207 L 40.6953 82.2589 L 41.5284 82.474 L 42.3775 82.6665 L 43.2411 82.8369 L 44.1173 82.9855 L 45.0045 83.1127 L 45.9009 83.219 L 46.8048 83.3046 L 47.7145 83.3701 L 48.6283 83.4158 L 49.5443 83.4421 L 50.461 83.4495 L 51.3765 83.4383 L 52.2891 83.4089 L 53.1972 83.3618 L 54.0989 83.2972 L 54.9926 83.2158 L 55.8766 83.1177 L 56.749 83.0035 L 57.6082 82.8735 L 58.4525 82.7282 L 59.2801 82.5678 L 60.0892 82.393 L 60.8783 82.2039 L 61.6455 82.0012 L 62.3891 81.785 L 63.1074 81.5559 L 63.7987 81.3142 L 64.4612 81.0604 L 64.7196 80.8956 L 64.9532 80.7025 L 65.1626 80.4836 L 65.3483 80.2414 L 65.5108 79.9785 L 65.6506 79.6974 L 65.7682 79.4005 L 65.8642 79.0903 L 65.939 78.7694 L 65.9932 78.4402 L 66.0273 78.1052 L 66.0418 77.767 L 66.0372 77.428 L 66.014 77.0908 L 65.9728 76.7579 L 65.9141 76.4316 L 65.842 76.0132 L 65.7371 75.597 L 65.4923 74.7676 L 65.3841 74.3531 L 65.3063 73.9376 L 65.275 73.5203 L 65.2816 73.3108 L 65.3058 73.1006 L 65.4662 72.9159 L 65.6418 72.7598 L 65.8307 72.6309 L 66.0313 72.5278 L 66.2418 72.4491 L 66.4604 72.3934 L 66.6854 72.3592 L 66.915 72.3453 L 67.1474 72.3501 L 67.3809 72.3723 L 67.6137 72.4105 L 67.8441 72.4633 L 68.2906 72.6069 L 68.7061 72.792 L 69.2406 72.9808 L 69.7943 73.1221 L 70.3592 73.2085 L 70.6432 73.2289 L 70.9269 73.233 L 71.2092 73.2197 L 71.4892 73.1881 L 71.7657 73.1375 L 72.0378 73.0668 L 72.3044 72.9752 L 72.5645 72.8617 L 72.8171 72.7256 L 73.0611 72.5657 L 73.351 72.3771 L 73.6218 72.1648 L 73.8728 71.9307 L 74.103 71.6769 L 74.3117 71.4054 L 74.4979 71.118 L 74.6609 70.8169 L 74.7997 70.5039 L 74.9137 70.1811 L 75.0018 69.8504 L 75.0633 69.5139 L 75.0973 69.1735 L 75.103 68.8311 L 75.0795 68.4888 L 75.026 68.1486 L 74.9417 67.8124 L 74.9483 67.5877 L 74.9852 67.379 L 75.0497 67.1856 L 75.1393 67.0068 L 75.2515 66.8419 L 75.3836 66.6904 L 75.5332 66.5514 L 75.6976 66.4244 L 76.0607 66.2034 L 76.4525 66.022 L 76.8525 65.8747 L 77.2402 65.7563 L 78.5849 65.3888 L 79.2613 65.1736 L 79.593 65.0511 L 79.9176 64.916 L 80.2329 64.7662 L 80.5368 64.5997 L 80.8272 64.4146 L 81.1019 64.2087 L 81.3589 63.9802 L 81.5959 63.7269 L 81.8109 63.4469 L 82.0017 63.1381 L 82.155 62.8437 L 82.2785 62.5425 L 82.374 62.2354 L 82.4434 61.9233 L 82.4886 61.6071 L 82.5114 61.2877 L 82.5137 60.966 L 82.4972 60.643 L 82.4639 60.3196 L 82.4156 59.9967 L 82.2813 59.3561 L 82.1092 58.7284 L 81.9141 58.1211 L 81.9181 58.0116 L 81.9403 57.9143 L 81.9788 57.8279 L 82.0316 57.7513 L 82.173 57.6225 L 82.3493 57.5182 L 82.7466 57.3449 L 82.9374 57.2565 L 83.1029 57.1542 L 83.7974 56.8375 L 84.51 56.5476 L 85.9463 55.9802 L 86.6483 55.6685 L 86.9906 55.4981 L 87.3253 55.3152 L 87.6509 55.1177 L 87.9663 54.9035 L 88.2699 54.6703 L 88.5605 54.416 L 88.738 54.1822 L 88.886 53.9381 L 89.0064 53.6849 L 89.1009 53.4236 L 89.1714 53.1556 L 89.2197 52.8819 L 89.2476 52.6037 L 89.2569 52.3222 L 89.2494 52.0386 L 89.2269 51.754 L 89.1442 51.1867 L 89.0233 50.6295 L 88.8785 50.0918 L 88.0777 46.4793 L 87.2808 42.8658 L 86.8702 41.0621 L 86.444 39.2622 L 85.997 37.4677 L 85.5234 35.6797 L 85.3722 35.2882 L 85.1943 34.9027 L 84.9909 34.5263 L 84.7631 34.1617 L 84.5118 33.8119 L 84.2382 33.4797 L 83.9433 33.1681 L 83.6282 32.88 L 83.2939 32.6183 L 82.9415 32.3858 L 82.5721 32.1855 L 82.1867 32.0203 L 81.7863 31.893 L 81.3721 31.8066 L 80.945 31.764 L 80.5063 31.768 L 80.0033 31.7838 L 79.5019 31.8169 L 78.5031 31.9256 L 77.5089 32.0766 L 76.5181 32.2523 L 75.5297 32.4352 L 74.5426 32.6077 L 73.5559 32.7524 L 72.5684 32.8516 L 71.9685 32.8421 L 71.3603 32.8068 L 70.7571 32.7313 L 70.4615 32.674 L 70.1722 32.6013 L 69.8908 32.5113 L 69.619 32.4023 L 69.3585 32.2724 L 69.1109 32.12 L 68.8779 31.9431 L 68.6612 31.74 L 68.4624 31.5089 L 68.2832 31.248 L 68.092 30.7762 L 67.9268 30.2941 L 67.7812 29.8044 L 67.6491 29.3094 L 67.3997 28.3139 L 67.2697 27.8184 L 67.1278 27.3277 L 66.987 26.6063 L 66.8153 25.8906 L 66.6137 25.1819 L 66.3832 24.481 L 66.1246 23.789 L 65.8389 23.107 L 65.5269 22.4359 L 65.1896 21.7768 L 64.828 21.1308 L 64.4429 20.4987 L 64.0353 19.8818 L 63.606 19.2809 L 63.1561 18.6971 L 62.6864 18.1315 L 62.1978 17.585 L 61.6913 17.0587 L 61.1678 16.5536 L 60.6281 16.0708 L 60.0734 15.6112 L 59.5043 15.1759 L 58.9219 14.766 L 58.3271 14.3823 L 57.7208 14.026 L 57.104 13.6981 L 56.4774 13.3997 L 55.8422 13.1316 L 55.1991 12.895 L 54.5492 12.6909 L 53.8932 12.5203 L 53.2323 12.3843 L 52.5672 12.2838 L 51.8988 12.2199 L 51.0462 12.2022 L 50.2112 12.2304 L 49.394 12.3031 L 48.595 12.4189 L 47.8142 12.5763 L 47.0521 12.7741 L 46.3089 13.0108 L 45.5847 13.285 L 44.8799 13.5953 L 44.1948 13.9403 L 43.5295 14.3187 L 42.8844 14.729 L 42.2596 15.1698 L 41.6555 15.6398 L 41.0722 16.1376 L 40.5101 16.6617 L 39.9694 17.2108 L 39.4504 17.7835 L 38.9533 18.3783 L 38.4783 18.994 L 38.0258 19.629 L 37.5959 20.2821 L 37.1889 20.9517 L 36.8052 21.6366 L 36.4448 22.3353 L 36.1082 23.0464 L 35.7954 23.7686 L 35.5069 24.5004 L 35.2429 25.2404 L 35.0035 25.9873 L 34.7891 26.7397 L 34.5999 27.4961 L 34.5999 27.4961"
       sodipodi:nodetypes="cccccccccccccccccccccccccccccccccccc" />
  </g>
  <g
     id="g827"
     inkscape:groupmode="layer"
     inkscape:label="B.Cu-disabled" />
  <g
     id="g829"
     inkscape:groupmode="layer"
     inkscape:label="B.Mask-disabled" />
  <g
     id="g831"
     inkscape:groupmode="layer"
     inkscape:label="B.Silk"
     style="display:inline" />
  <g
     style="display:inline"
     id="g833"
     inkscape:groupmode="layer"
     inkscape:label="F.Cu" />
  <g
     id="g835"
     inkscape:groupmode="layer"
     inkscape:label="F.Mask-disabled" />
  <g
     id="g837"
     inkscape:groupmode="layer"
     inkscape:label="F.Silk"
     style="display:inline"
     sodipodi:insensitive="true">
    <path
       id="path897-9"
       style="display:inline;fill:#000000;fill-opacity:1;stroke:#000000;stroke-width:0.125361;stroke-opacity:1"
       d="m 50.916548,12.897841 c -0.714592,0.01513 -1.447709,0.114864 -2.101024,0.254 -4.476374,0.953408 -7.963465,3.567053 -10.592489,7.938704 -1.144374,1.902892 -1.790728,3.681353 -2.61334,7.18749 -0.576372,2.456635 -1.045094,3.486818 -1.967284,4.325008 -0.878619,0.798588 -1.494654,1.016924 -3.577027,1.267839 -1.365016,0.16448 -1.827122,0.175293 -2.427289,0.05717 -0.407721,-0.08021 -1.292129,-0.230841 -1.965666,-0.334349 -5.348483,-0.821964 -5.961317,-0.854418 -6.921628,-0.367789 -0.743191,0.376605 -1.387812,1.13707 -1.872371,2.20888 -0.354926,0.785078 -1.204392,4.302295 -3.039368,12.587279 -0.198528,0.896328 -0.502266,2.250736 -0.675174,3.009167 -0.17292,0.758433 -0.313915,1.591228 -0.313321,1.850802 0.0021,0.792759 0.539798,1.233619 2.562646,2.101023 0.960623,0.411921 1.874636,0.749056 2.03092,0.749056 0.347683,0 0.68533,-0.432509 1.522379,-1.948947 1.469373,-2.661972 3.163871,-6.199083 3.865003,-8.068129 0.17054,-0.454628 0.434178,-1.080534 0.586196,-1.390799 0.240635,-0.491168 0.282237,-0.525661 0.31925,-0.267481 0.08014,0.558731 -0.464432,3.067095 -2.057882,9.481577 -0.582341,2.344248 -1.058027,4.434364 -1.056982,4.644798 9.96e-4,0.210431 -0.169894,1.075242 -0.380193,1.921445 -0.441846,1.77795 -0.418318,2.324844 0.139134,3.203849 0.413554,0.652108 1.154362,1.078456 2.429985,1.398885 1.064133,0.267298 1.207076,0.20304 2.160884,-0.973397 1.356979,-1.673697 2.14203,-2.866404 3.244294,-4.930613 0.572365,-1.071855 1.872957,-4.830596 2.385765,-6.894662 0.485976,-1.956078 0.956898,-3.447603 1.08826,-3.447603 0.0695,0 0.08694,0.223713 0.04207,0.532807 -0.04248,0.293031 -0.131925,1.06906 -0.198996,1.72407 -0.392317,3.831406 -1.706394,10.286354 -3.0755,15.106781 -0.559393,1.969521 -0.935041,3.717141 -0.937263,4.361676 -0.0021,0.568374 0.26027,1.127324 0.795973,1.697107 0.930778,0.989979 2.006729,1.156376 3.66601,0.567318 0.836178,-0.29684 1.103607,-0.469453 1.807657,-1.168614 1.341338,-1.332024 2.589907,-3.793846 4.237103,-8.352868 0.970349,-2.685687 1.23142,-3.695637 1.907966,-7.385408 0.151702,-0.827382 0.332499,-1.729782 0.40176,-2.005571 0.119509,-0.475948 0.132332,-0.486907 0.257236,-0.213013 0.200531,0.439685 -0.180779,5.92871 -0.681107,9.802984 -0.115545,0.89474 -0.535647,3.720465 -0.987417,6.6439 -0.05855,0.379206 -0.227066,1.254083 -0.37426,1.943558 -0.147193,0.689491 -0.321618,1.732842 -0.38774,2.318891 -0.06606,0.586072 -0.197202,1.291336 -0.291751,1.56714 -0.905968,2.642719 -0.907645,3.497414 -0.0075,4.39781 1.191478,1.242862 9.263592,2.3124 13.042966,2.349092 3.870367,0.03476 11.861404,-1.031918 13.018159,-2.350172 0.900098,-0.900394 0.898962,-1.755088 -0.007,-4.397807 -0.09455,-0.275806 -0.226231,-0.981072 -0.292287,-1.567141 -0.06612,-0.586052 -0.240547,-1.629399 -0.387741,-2.318893 -0.147195,-0.689472 -0.315715,-1.564351 -0.374259,-1.943556 -0.451772,-2.923434 -0.871335,-5.749161 -0.986878,-6.643899 -0.500329,-3.874277 -0.882177,-9.363302 -0.681648,-9.802988 0.124906,-0.273893 0.138266,-0.262931 0.257774,0.213014 0.06926,0.275792 0.25006,1.178189 0.401763,2.005575 0.676544,3.68977 0.937614,4.699716 1.907965,7.385404 1.647194,4.559023 2.895765,7.020847 4.237102,8.352871 0.704054,0.699158 0.970942,0.871775 1.807119,1.168614 1.65928,0.589057 2.735232,0.422661 3.66601,-0.56732 0.535703,-0.569782 0.798061,-1.12873 0.795973,-1.697105 -0.0022,-0.644535 -0.377332,-2.392155 -0.936726,-4.361678 -1.369105,-4.820427 -2.68318,-11.275375 -3.075499,-15.106782 -0.06707,-0.65501 -0.15706,-1.431036 -0.199533,-1.724069 -0.04488,-0.309094 -0.02691,-0.532808 0.0426,-0.532808 0.131364,0 0.602284,1.491528 1.088263,3.447602 0.512809,2.06407 1.813398,5.822808 2.385763,6.894662 1.102267,2.064211 1.887314,3.256921 3.244293,4.930617 0.953809,1.176434 1.096213,1.240693 2.160346,0.973396 1.275624,-0.320432 2.016971,-0.746776 2.430523,-1.398887 0.557452,-0.879005 0.58098,-1.425899 0.139135,-3.203846 -0.2103,-0.846206 -0.381773,-1.711013 -0.380732,-1.921448 9.97e-4,-0.210431 -0.474102,-2.300546 -1.056444,-4.644798 -1.59345,-6.414482 -2.138027,-8.922846 -2.057881,-9.481576 0.03702,-0.258181 0.07808,-0.223688 0.31871,0.267481 0.152019,0.310268 0.416196,0.936171 0.586736,1.390797 0.70113,1.86905 2.395091,5.406161 3.864463,8.06813 0.837053,1.516441 1.175235,1.948951 1.522918,1.948951 0.156287,0 1.070296,-0.337138 2.030919,-0.749056 2.02285,-0.867405 2.56056,-1.308269 2.562647,-2.101027 5.97e-4,-0.259571 -0.1404,-1.092368 -0.313317,-1.850799 -0.172909,-0.758433 -0.477188,-2.1123 -0.675717,-3.008631 -1.834976,-8.284982 -2.683901,-11.80274 -3.038828,-12.587815 -0.484561,-1.071812 -1.129179,-1.831737 -1.872373,-2.208341 -0.960307,-0.486629 -1.573143,-0.454716 -6.921627,0.367248 -0.673536,0.103511 -1.558484,0.254143 -1.966205,0.334352 -0.600166,0.118129 -1.062272,0.107316 -2.427289,-0.05717 -2.082373,-0.250917 -2.697868,-0.469253 -3.576487,-1.267842 -0.922189,-0.838187 -1.390912,-1.86837 -1.967284,-4.325004 -0.822613,-3.506137 -1.468967,-5.2846 -2.613341,-7.187492 -2.629023,-4.371652 -6.116653,-6.985296 -10.593027,-7.938704 -0.653315,-0.139137 -1.343287,-0.244954 -2.057885,-0.252922 z m 7.297504,10.585479 c 0.03533,-2.16e-4 0.07223,-3.26e-4 0.110552,0 2.233252,0.02103 3.971599,2.614437 3.206543,4.782851 -0.409159,1.159695 -1.301928,2.069226 -2.34154,2.384685 -0.562555,0.170709 -5.700771,0.03768 -6.125116,-0.158548 -0.525374,-0.242941 -0.467248,-0.693952 0.243752,-1.897715 1.351806,-2.288654 2.751901,-4.059776 3.76416,-4.761281 0.400572,-0.277586 0.611659,-0.346753 1.141649,-0.349992 z m -14.122598,0.383964 c 0.613094,-0.0052 0.824923,0.05335 1.252201,0.349454 1.012258,0.701493 2.412354,2.472637 3.764157,4.761281 0.711002,1.203762 0.768587,1.655324 0.243213,1.898256 -0.424345,0.196232 -5.562557,0.328716 -6.125112,0.158006 -1.039612,-0.315458 -1.932382,-1.22445 -2.341543,-2.384143 -0.765057,-2.168407 0.973831,-4.761814 3.207084,-4.782854 z m 19.158912,7.322311 c 0.225044,-0.0094 0.460389,0.07957 0.680029,0.283122 0.587736,0.544688 0.775759,1.504287 0.764157,3.898437 -0.01524,3.132293 -0.365201,4.266224 -2.146325,6.95776 -1.614344,2.43949 -3.131279,3.723256 -4.98562,4.217688 -1.413992,0.377018 -1.882023,0.145897 -2.486071,-1.229554 -0.321773,-0.732687 -0.782875,-1.160368 -1.171312,-1.085565 -0.316397,0.06095 -0.748383,0.897021 -0.833181,1.61298 -0.03976,0.335568 -0.171164,0.761564 -0.292291,0.946431 -0.452136,0.690056 -1.592792,0.873057 -2.535143,0.406616 -0.686405,-0.339775 -1.012055,-0.985644 -1.015999,-2.014201 -0.0031,-0.660587 -0.02759,-0.724786 -0.315476,-0.797052 -0.47785,-0.119929 -0.650831,0.004 -1.012225,0.725866 -0.640291,1.279392 -1.318569,1.729462 -2.604709,1.729462 -0.690323,0 -0.949498,-0.07175 -1.816827,-0.505843 -1.22621,-0.613727 -1.88767,-1.309703 -3.003777,-3.160165 -0.972164,-1.611828 -1.192953,-2.190648 -1.603271,-4.198813 -0.605405,-2.963018 -0.246583,-5.997264 0.822937,-6.958839 0.833025,-0.748946 1.881538,-0.253649 2.064894,0.975016 0.255268,1.710496 1.1643,2.237378 1.714363,0.993886 0.426883,-0.965035 1.170298,-1.296138 1.974834,-0.880101 0.538323,0.278383 0.657556,0.496824 0.771167,1.412908 0.08526,0.687417 0.16825,0.904335 0.43412,1.133023 0.665679,0.572602 1.13816,0.341452 1.673375,-0.819702 0.570791,-1.238359 1.013661,-1.5516 1.819525,-1.285637 0.561593,0.185336 1.007235,0.678626 1.383786,1.53047 0.17244,0.390115 0.382686,0.75174 0.466474,0.803521 0.226361,0.139892 0.557003,-0.340162 0.858531,-1.246269 0.352212,-1.058386 0.717508,-1.394571 1.515908,-1.394571 0.771822,0 0.994949,0.20966 1.463061,1.378393 0.279006,0.696601 0.411578,0.886397 0.643898,0.919466 0.574358,0.08182 1.018991,-0.586817 1.209598,-1.82006 0.103105,-0.667098 0.551875,-1.167537 1.047278,-1.167537 0.365997,0 1.274223,0.618029 1.833542,1.24735 0.775944,0.873038 1.377816,0.398557 1.622147,-1.27809 0.118048,-0.810128 0.563494,-1.309191 1.058603,-1.330396 z" />
  </g>
  <g
     id="g839"
     inkscape:groupmode="layer"
     inkscape:label="Drill" />
</svg>
