<?xml version="1.0" encoding="UTF-8" standalone="no"?>
<!-- Created with Inkscape (http://www.inkscape.org/) -->

<svg
   width="145.0mm"
   height="145.0mm"
   viewBox="0 0 145.0 145.0"
   version="1.1"
   id="svg1055"
   inkscape:version="1.1 (c68e22c387, 2021-05-23)"
   sodipodi:docname="Fledermaus_RGB.svg"
   xmlns:inkscape="http://www.inkscape.org/namespaces/inkscape"
   xmlns:sodipodi="http://sodipodi.sourceforge.net/DTD/sodipodi-0.dtd"
   xmlns="http://www.w3.org/2000/svg"
   xmlns:svg="http://www.w3.org/2000/svg"
   xmlns:rdf="http://www.w3.org/1999/02/22-rdf-syntax-ns#"
   xmlns:cc="http://creativecommons.org/ns#"
   xmlns:dc="http://purl.org/dc/elements/1.1/">
  <sodipodi:namedview
     id="base"
     pagecolor="#ffffff"
     bordercolor="#666666"
     borderopacity="1.0"
     inkscape:pageopacity="0.0"
     inkscape:pageshadow="2"
     inkscape:zoom="1.5762263"
     inkscape:cx="224.58704"
     inkscape:cy="281.36823"
     inkscape:document-units="mm"
     inkscape:current-layer="g1654"
     showgrid="true"
     inkscape:window-width="1920"
     inkscape:window-height="1017"
     inkscape:window-x="-8"
     inkscape:window-y="-8"
     inkscape:window-maximized="1"
     inkscape:measure-start="82.1658,484.405"
     inkscape:measure-end="623.549,458.414"
     borderlayer="true"
     inkscape:snap-global="false"
     inkscape:pagecheckerboard="0">
    <inkscape:grid
       id="grid1629"
       units="mm"
       type="xygrid"
       empspacing="1"
       spacingy="2.54"
       spacingx="2.54" />
  </sodipodi:namedview>
  <defs
     id="defs1049" />
  <metadata
     id="metadata1052">
    <rdf:RDF>
      <cc:Work
         rdf:about="">
        <dc:format>image/svg+xml</dc:format>
        <dc:type
           rdf:resource="http://purl.org/dc/dcmitype/StillImage" />
      </cc:Work>
    </rdf:RDF>
  </metadata>
  <g
     id="layer1"
     inkscape:groupmode="layer"
     inkscape:label="Ebene 1" />
  <g
     id="g1638"
     sodipodi:insensitive="true"
     inkscape:groupmode="layer"
     inkscape:label="[fixed] BG">
    <rect
       id="rect1636"
       style="stroke:none;fill-opacity:1;fill:#FFFFFF"
       height="145.0"
       width="145.0"
       y="0"
       x="0" />
  </g>
  <g
     id="g1640"
     inkscape:groupmode="layer"
     inkscape:label="F.Cu" />
  <g
     id="g1642"
     inkscape:groupmode="layer"
     inkscape:label="B.Cu-disabled" />
  <g
     id="g1644"
     inkscape:groupmode="layer"
     inkscape:label="B.Adhes-disabled" />
  <g
     id="g1646"
     inkscape:groupmode="layer"
     inkscape:label="F.Adhes-disabled" />
  <g
     id="g1648"
     inkscape:groupmode="layer"
     inkscape:label="B.Paste-disabled" />
  <g
     id="g1650"
     inkscape:groupmode="layer"
     inkscape:label="F.Paste-disabled" />
  <g
     id="g1652"
     inkscape:groupmode="layer"
     inkscape:label="B.SilkS-disabled" />
  <g
     style="display:inline"
     id="g1654"
     inkscape:groupmode="layer"
     inkscape:label="F.SilkS">
    <path
       inkscape:connector-curvature="0"
       id="path1506"
       d="m 72.535156,119.92198 c -0.855345,-1.95131 -2.881013,-4.86665 -4.464046,-6.42464 -1.840241,-1.81113 -3.499859,-2.78479 -5.934527,-3.48165 -2.163658,-0.61929 -3.866102,-1.47051 -5.952078,-2.97603 -2.507626,-1.80984 -4.230953,-4.51271 -5.070396,-7.952391 -0.473838,-1.941604 -0.370222,-6.914476 0.202049,-9.697133 l 0.46175,-2.245225 -1.321225,-1.360621 c -0.726674,-0.748343 -1.397542,-1.361264 -1.490822,-1.362051 -0.09328,-7.88e-4 -0.490772,0.736882 -0.883313,1.639266 -0.537365,1.235307 -0.865778,1.677504 -1.329157,1.789653 -0.816705,0.197671 -1.578125,-0.585284 -2.086568,-2.145584 l -0.389946,-1.196643 -1.869268,-0.221714 c -1.045051,-0.123951 -2.053402,-0.391194 -2.286862,-0.606083 -0.574125,-0.52846 -0.792947,-1.582101 -0.420244,-2.02354 0.231983,-0.274772 0.235964,-0.434268 0.01643,-0.657547 -0.437196,-0.444637 -0.342036,-1.134188 0.208815,-1.513128 0.346126,-0.238109 0.423627,-0.446826 0.262363,-0.706573 -0.12588,-0.202751 -0.227976,-0.68114 -0.22688,-1.063088 0.0018,-0.638064 0.08096,-0.693781 0.974714,-0.686236 1.383472,0.01167 2.489834,0.881915 3.488749,2.744167 0.467755,0.872031 0.927452,1.586159 1.021547,1.586954 0.0941,7.93e-4 0.445371,-0.672485 0.780615,-1.496173 1.237222,-3.039836 2.110477,-3.808597 3.709704,-3.265796 1.09575,0.371915 1.92584,1.335855 2.943161,3.417753 l 0.85854,1.756953 0.659352,-1.112812 c 1.352553,-2.282743 1.367118,-2.370965 0.581987,-3.524588 -0.994592,-1.461391 -4.292475,-4.539258 -5.937859,-5.54172 -0.761454,-0.463927 -2.503592,-1.260526 -3.871413,-1.770224 -2.325174,-0.866439 -2.692249,-0.930415 -5.643124,-0.983538 -2.775047,-0.04996 -3.339754,0.01424 -4.676343,0.531657 -1.824537,0.706305 -3.480017,2.27569 -4.582957,4.344629 -0.682271,1.27983 -1.28618,1.898908 -1.570406,1.609839 -0.05251,-0.0534 0.09242,-1.133629 0.322066,-2.400491 0.848969,-4.683306 -0.55229,-7.859436 -4.226118,-9.579019 -1.444192,-0.675968 -3.449069,-1.132023 -5.005429,-1.13859 -1.595452,-0.0066 -4.447011,0.644263 -5.779293,1.319375 -0.659467,0.334174 -1.257927,0.510473 -1.329908,0.391776 -0.07196,-0.1187 0.09151,-0.722752 0.363306,-1.342345 1.248331,-2.845696 1.694711,-4.978933 1.725073,-8.244078 0.02585,-2.775385 -0.04103,-3.316348 -0.553651,-4.481332 C 13.892901,49.12471 13.127577,48.056957 12.512832,47.480634 10.887773,45.957143 9.4423451,45.378448 6.8971928,45.23234 5.0428663,45.125892 4.515559,45.196248 3.0116264,45.750757 c -2.04370802,0.753532 -1.9332905,0.737861 -1.9293742,0.273839 0.0017,-0.201365 0.9471941,-1.145301 2.1010988,-2.097632 8.39242,-6.926384 18.541674,-10.242104 31.210718,-10.196418 5.567828,0.02006 9.052982,0.686994 10.893909,2.084654 1.295073,0.983244 1.307909,1.892384 0.07227,5.11891 -1.413983,3.692225 -1.970088,6.606055 -1.775663,9.303933 0.333592,4.629033 1.774795,8.373248 4.15466,10.793724 1.536314,1.562531 1.928441,1.606498 1.949468,0.218581 0.0046,-0.316929 0.182227,-0.981813 0.394275,-1.477525 0.334423,-0.781771 0.479716,-0.886654 1.095651,-0.790935 l 0.710096,0.110349 -0.691804,-2.922403 c -1.537499,-6.494863 -1.747522,-8.577436 -1.689166,-16.749603 0.05278,-7.379748 0.06291,-7.514126 0.608379,-8.050882 0.955061,-0.939699 1.690491,-0.349783 5.388454,4.322274 7.095188,8.964165 9.892021,13.686901 12.248762,20.683259 0.142217,0.422195 0.220475,0.408202 1.00491,-0.179711 0.467875,-0.350659 0.918769,-0.568318 1.001986,-0.483684 0.08324,0.08465 -0.07838,0.722524 -0.359138,1.417525 -0.280744,0.695005 -0.478017,1.281622 -0.438389,1.303597 0.03963,0.02197 0.659001,0.401366 1.376381,0.843089 1.172519,0.721968 1.338057,0.762871 1.638046,0.40476 0.183545,-0.219107 0.870962,-0.816654 1.527598,-1.327885 0.656631,-0.511231 1.124782,-0.99978 1.040337,-1.085668 -0.08446,-0.08589 0.087,-0.154124 0.381025,-0.151642 0.294013,0.0025 0.637141,-0.175196 0.762505,-0.39484 0.207148,-0.362936 0.265809,-0.360837 0.643247,0.02304 0.386822,0.393409 0.431333,0.382333 0.648936,-0.161445 1.186383,-2.964727 3.290296,-6.583606 5.522152,-9.498489 2.992654,-3.908519 9.769736,-10.896485 11.670182,-12.033334 0.992427,-0.593669 1.059361,-0.597554 1.557982,-0.09045 0.992663,1.009558 0.05219,12.144533 -1.967239,23.291491 -0.51174,2.824755 -0.896828,5.165078 -0.855749,5.200716 0.04108,0.03562 0.467418,0.268934 0.947419,0.51843 l 0.872731,0.453637 -1.125427,0.981873 c -0.90024,0.785415 -1.05242,1.028929 -0.760561,1.217024 0.923574,0.59523 1.474218,0.253174 3.93074,-2.44175 4.665396,-5.118172 5.979036,-7.603516 6.212376,-11.753476 0.17515,-3.115486 -0.20814,-4.440739 -2.5304,-8.748974 -1.928798,-3.57827 -1.998079,-4.195921 -0.622375,-5.548597 0.898375,-0.883362 1.092875,-0.95665 2.960935,-1.11581 2.94578,-0.250984 6.34908,0.05323 10.60752,0.948199 8.8507,1.860086 15.08402,4.903743 26.86555,13.118117 2.30281,1.605571 4.18621,3.000063 4.18539,3.098868 -8.4e-4,0.09882 -0.52925,0.307808 -1.17425,0.464446 -1.60166,0.388957 -2.95804,1.100001 -4.20231,2.202931 -1.44952,1.284879 -1.97851,2.538166 -2.00392,4.747774 -0.0324,2.876145 0.55359,4.338414 3.32697,8.292314 1.34211,1.913381 2.37458,3.543378 2.29441,3.622214 -0.0802,0.07884 -1.08598,-0.264994 -2.23512,-0.76407 -2.86942,-1.246214 -4.46979,-1.56361 -7.28723,-1.445255 -3.84208,0.161398 -6.81984,1.666871 -8.46247,4.278368 -0.75461,1.19973 -0.77474,1.309279 -0.73163,3.977878 0.0526,3.251588 0.23674,3.238904 -3.04026,0.209293 -3.6671,-3.390235 -7.50801,-5.089602 -12.92687,-5.719337 -3.08315,-0.3583 -6.63051,-0.0909 -9.264506,0.698376 -1.774231,0.531644 -6.094576,3.188188 -6.679297,4.107043 -0.277354,0.435849 -0.14691,0.854938 0.985108,3.164975 0.717636,1.464432 1.376745,2.947312 1.464687,3.295288 l 0.159889,0.632679 0.82012,-0.976159 c 0.987189,-1.175024 2.88294,-2.401783 3.700881,-2.394879 0.870148,0.0073 1.715448,1.013042 2.209968,2.629241 l 0.43532,1.422817 0.53093,-0.84538 c 0.80954,-1.28906 2.64475,-2.652486 3.55988,-2.644762 0.51608,0.0043 0.50913,0.98039 -0.0124,1.711432 -0.37706,0.528783 -0.36704,0.558161 0.19161,0.562874 0.72524,0.0061 1.70629,0.67424 1.70218,1.159263 -0.004,0.485652 -1.11241,1.165438 -2.243,1.375747 l -0.9267,0.172382 1.06406,0.03804 c 0.79362,0.02836 1.13293,0.169389 1.33509,0.554913 0.60987,1.163039 -0.46114,2.214671 -2.22497,2.184709 -1.45833,-0.02478 -2.24957,0.564106 -3.02998,2.255087 -1.67043,3.619471 -1.826776,3.784254 -2.539347,2.676457 -0.28242,-0.439074 -0.466418,-1.363891 -0.530897,-2.668472 l -0.09869,-1.996518 -0.663397,0.140856 c -1.346317,0.285853 -1.690903,0.414644 -2.374297,0.887398 -0.470438,0.325438 -0.700436,0.707663 -0.704342,1.170532 -0.01015,1.202215 -0.765986,3.630021 -1.73451,5.571348 -1.215683,2.436724 -3.90565,5.106394 -7.335586,7.280204 -6.726817,4.26327 -7.03659,4.50144 -8.351514,6.42119 -0.686517,1.00228 -1.85922,3.26073 -2.606008,5.01878 -0.746787,1.75802 -1.466368,3.23159 -1.59906,3.27459 -0.132694,0.043 -0.454739,-0.40885 -0.715654,-1.0041 z m 1.435623,-4.27696 c 0.451494,-1.06525 1.325522,-2.70567 1.942282,-3.64532 0.61676,-0.93967 1.00613,-1.74972 0.865266,-1.8001 -0.140866,-0.0504 -0.751751,-0.0215 -1.357526,0.0641 -0.856763,0.12108 -1.250674,0.34798 -1.773416,1.02146 -0.369605,0.47618 -0.552593,0.86681 -0.406642,0.86803 0.414668,0.003 0.308322,0.68484 -0.284568,1.82314 -0.493837,0.94817 -0.516655,1.16753 -0.250346,2.40651 0.161161,0.74976 0.327002,1.32627 0.368533,1.28113 0.04152,-0.0453 0.444919,-0.95367 0.896417,-2.01893 z m -9.338298,-6.7843 c 0.02705,-0.24281 0.08428,-0.77277 0.127187,-1.17764 0.121939,-1.15061 0.585924,-1.03398 1.426653,0.35857 0.425248,0.70436 0.887857,1.28164 1.028026,1.28282 0.368995,0.003 0.316954,-0.43097 -0.136118,-1.13534 -0.389172,-0.60503 -0.303042,-1.14116 0.182665,-1.13706 0.13626,0.001 0.692282,0.48879 1.235606,1.08369 l 0.98786,1.0816 -0.242061,-0.88425 c -0.29955,-1.09425 -0.308663,-1.0144 0.11536,-1.01082 0.195977,0.002 0.620782,0.32274 0.944013,0.71352 1.024992,1.23922 1.240305,1.24253 1.0667,0.017 l -0.154785,-1.09315 1.140033,1.11708 c 1.384112,1.35627 2.087046,1.32388 1.835118,-0.0846 -0.136989,-0.76581 -0.09198,-0.88198 0.340302,-0.87833 0.273995,0.002 0.76579,0.35218 1.092886,0.77748 0.881301,1.14588 1.448708,0.81985 1.462721,-0.84047 l 0.0109,-1.2931 0.793227,0.97906 c 0.739415,0.91263 0.816213,0.94817 1.131977,0.52388 0.186312,-0.25033 0.341441,-0.77432 0.344735,-1.16442 0.0033,-0.39011 0.09689,-0.70852 0.207997,-0.70759 0.391056,0.003 0.802878,0.61927 0.79803,1.19365 -0.0083,0.98266 0.455845,0.64933 0.938443,-0.67392 0.481506,-1.32028 1.101729,-1.68503 1.092931,-0.64278 -0.01104,1.30871 0.238276,1.43166 1.053056,0.51931 0.423439,-0.47413 0.900156,-0.8608 1.059371,-0.85927 0.193271,0.002 0.264488,-0.46198 0.214287,-1.39563 -0.07898,-1.46854 0.354499,-2.49672 0.770734,-1.82813 0.11277,0.18114 0.217749,0.61355 0.233283,0.9609 0.01553,0.34737 0.12463,0.086 0.242447,-0.58068 0.381395,-2.158461 1.239051,-2.440424 1.267467,-0.41669 0.01164,0.83045 0.02757,0.84696 0.262706,0.27263 0.137656,-0.33625 0.325,-1.2722 0.416318,-2.079908 0.179603,-1.588553 0.728188,-2.015714 0.985231,-0.767154 0.329574,1.600832 0.485442,1.710292 0.832982,0.584945 0.27611,-0.894066 0.414041,-1.043893 0.851949,-0.925412 0.513397,0.138889 0.519917,0.09097 0.374126,-2.749856 -0.155036,-3.020976 0.01206,-3.505702 0.754715,-2.189118 0.384212,0.681147 0.390679,0.661625 0.271229,-0.818442 -0.06731,-0.833926 -0.191468,-1.829322 -0.275926,-2.21199 -0.117745,-0.533499 -0.06023,-0.694974 0.246589,-0.692385 0.220079,0.0018 0.561311,0.317247 0.75829,0.700866 0.35088,0.683327 0.357557,0.670572 0.329035,-0.628281 -0.01854,-0.8439 -0.139791,-1.3268 -0.333616,-1.328611 -0.309532,-0.0029 -2.319287,-3.291929 -2.315093,-3.788732 0.0051,-0.615744 0.805434,-0.19669 1.506953,0.789132 0.928172,1.304335 0.97012,0.807551 0.08842,-1.047273 -0.541548,-1.139269 -0.681707,-1.290681 -0.765714,-0.827195 -0.187029,1.031891 -1.077771,0.508512 -2.202637,-1.294221 -0.332575,-0.532995 -0.370911,-0.782802 -0.153005,-0.997061 0.217906,-0.214259 0.49043,-0.135634 1.087717,0.313805 l 0.796965,0.599689 -0.698954,-0.932592 c -0.550972,-0.735144 -0.772585,-0.87252 -1.046751,-0.648862 -0.268904,0.219364 -0.543337,0.131957 -1.209768,-0.385308 -1.123771,-0.87224 -1.290633,-0.846885 -0.608342,0.09245 0.447062,0.615485 0.492199,0.824515 0.23217,1.075225 -0.258307,0.249042 -0.433235,0.171553 -0.875716,-0.387924 -0.424008,-0.536114 -0.771526,-0.700977 -1.490382,-0.707044 -1.341653,-0.01132 -1.195122,-0.465907 0.657579,-2.039974 2.742692,-2.330213 5.783895,-5.279217 6.676973,-6.474558 1.085185,-1.452456 1.351194,-2.907044 0.690958,-3.778304 -0.395249,-0.521578 -0.737466,-0.640984 -2.123685,-0.741006 -2.132806,-0.153889 -3.240859,0.354616 -5.912599,2.713397 -2.462947,2.174445 -3.467178,2.694373 -5.544722,2.870703 -1.40192,0.118987 -1.569319,0.184056 -1.193358,0.463862 0.762043,0.567155 0.119861,0.702105 -1.449585,0.304625 -1.467181,-0.371577 -1.503577,-0.368864 -1.102282,0.08216 0.228248,0.25653 0.346645,0.533626 0.263105,0.615772 -0.259056,0.254718 -2.759162,-1.057834 -4.134625,-2.170662 -0.720184,-0.582676 -1.428837,-1.060416 -1.574783,-1.061648 -0.145947,-0.0012 -0.691391,0.272744 -1.212097,0.608837 -1.079412,0.696708 -2.982633,1.172415 -3.802844,0.950511 -0.906431,-0.245223 -0.641009,-0.505334 0.958911,-0.939715 1.926087,-0.522941 2.257348,-0.962976 0.365908,-0.486067 -0.779571,0.19656 -1.746278,0.282239 -2.148238,0.190391 -0.763634,-0.17449 -0.951533,-0.501513 -0.410546,-0.714512 0.174197,-0.06859 0.02493,-0.136137 -0.331696,-0.15011 -0.356627,-0.01398 -1.252481,-0.21036 -1.99079,-0.43641 -1.734125,-0.530948 -3.735388,-2.495452 -4.392633,-4.311955 -0.956851,-2.644558 -2.494349,-4.069732 -4.32136,-4.005662 -0.625989,0.02196 -1.294608,0.167542 -1.485819,0.323527 -0.596429,0.486551 -0.977427,2.120723 -0.681369,2.922526 0.144139,0.390369 0.325116,1.012337 0.402167,1.382158 0.325515,1.562347 6.232266,8.608789 8.007702,9.552768 0.711207,0.378143 0.763159,0.366987 1.335039,-0.286623 l 0.595036,-0.680486 -1.338856,-1.470837 c -1.849299,-2.031581 -2.976167,-3.495788 -3.73738,-4.856201 -0.355998,-0.636227 -1.348888,-1.86155 -2.206424,-2.722936 -1.326597,-1.332555 -1.510488,-1.6238 -1.232873,-1.952615 0.899568,-1.065491 1.983277,-0.138429 4.259598,3.643878 1.730951,2.876131 3.654661,5.181652 4.850021,5.812637 0.423585,0.223594 1.600198,0.506722 2.614695,0.629171 1.014494,0.122448 1.957879,0.294011 2.096405,0.381253 0.138533,0.08723 0.567655,0.870985 0.953612,1.741657 0.921224,2.078171 1.468058,2.322185 5.188091,2.315082 5.729559,-0.01094 8.438388,-1.30145 14.11005,-6.722148 2.361573,-2.257074 3.387262,-3.076478 3.846136,-3.072603 0.778093,0.0065 1.252654,0.557749 1.137801,1.321498 -0.07278,0.483886 -0.278137,0.602299 -1.224876,0.706238 -0.998322,0.109603 -1.324431,0.319981 -2.666109,1.719935 -3.255233,3.396629 -6.357383,5.416485 -10.039111,6.536602 -2.693821,0.819567 -7.504712,0.790587 -9.704366,-0.05846 -0.825855,-0.318757 -1.752916,-0.581689 -2.060135,-0.58428 -0.789733,-0.0066 -1.539343,1.050819 -2.167441,3.057632 -0.754204,2.409728 -1.411991,2.72683 -2.899954,1.397978 l -0.909763,-0.812507 0.104805,-2.095689 c 0.108821,-2.176108 0.03203,-2.354323 -1.018221,-2.363187 -0.425588,-0.0036 -2.393747,1.780984 -2.854503,2.588244 -0.159637,0.279692 -0.09456,0.339339 0.269828,0.247328 0.374274,-0.09452 0.517034,0.0535 0.647205,0.670986 0.190965,0.905884 -0.265245,1.691147 -0.746463,1.284865 -0.197546,-0.166783 -0.392055,-0.08566 -0.607895,0.253553 -0.174563,0.274346 -0.601012,0.603912 -0.947653,0.732366 -0.555232,0.205753 -0.593153,0.294115 -0.318529,0.742228 0.253223,0.413195 0.235316,0.792157 -0.09543,2.019083 -0.296732,1.100792 -0.321594,1.440616 -0.09166,1.25305 0.578082,-0.471586 0.64296,0.209709 0.21098,2.215469 -0.231217,1.073572 -0.476673,2.007286 -0.545454,2.074914 -0.0688,0.06765 -0.317725,-5.2e-5 -0.553203,-0.150344 -0.391389,-0.249849 -0.42235,-0.113593 -0.360672,1.587366 0.04028,1.110762 0.166136,1.800846 0.312279,1.712218 0.134644,-0.0816 0.396125,-0.02072 0.581068,0.135443 0.262792,0.221866 0.372429,0.144775 0.501793,-0.352828 0.197613,-0.76012 0.54741,-0.815313 0.900448,-0.142057 0.357435,0.681643 0.31402,1.470839 -0.09396,1.707852 -0.188453,0.109489 -0.414414,0.781276 -0.502137,1.49286 -0.135824,1.101794 -0.09761,1.289502 0.257553,1.264842 0.317588,-0.02208 0.462284,0.294554 0.606725,1.327636 0.117664,0.84157 0.420125,1.6352 0.796663,2.09045 l 0.606989,0.73384 0.08591,-0.8009 c 0.04725,-0.44048 0.208717,-0.83994 0.358802,-0.88769 0.371825,-0.1183 0.7428,0.78928 1.251067,3.06063 0.242099,1.08191 0.58354,1.97338 0.786387,2.05318 0.271993,0.10703 0.317975,0.003 0.190539,-0.43232 -0.355151,-1.2123 -0.426664,-2.65767 -0.14009,-2.83145 0.349638,-0.21204 1.440225,2.18691 1.662633,3.65725 0.0837,0.55325 0.291931,1.12393 0.462762,1.26815 0.237631,0.20063 0.284862,0.0984 0.201051,-0.43547 -0.361284,-2.30095 -0.355626,-2.59377 0.05007,-2.59036 0.226066,0.002 0.570724,0.41914 0.787761,0.95367 0.312223,0.76893 1.565058,2.8542 1.715566,2.85547 0.02079,1.8e-4 0.05993,-0.19836 0.08698,-0.4412 z m 6.182079,-2.6742 c -0.551997,-0.71407 -0.507329,-1.12902 0.120967,-1.1237 0.456739,0.004 0.964422,1.25947 0.638725,1.57972 -0.13869,0.13635 -0.44294,-0.0464 -0.759692,-0.45602 z m 3.389567,0.11456 c -0.432935,-0.62936 -0.506475,-1.36237 -0.157885,-1.57378 0.266056,-0.16132 1.029791,0.94339 1.025237,1.483 -0.0053,0.63819 -0.458172,0.68557 -0.867352,0.0909 z m -10.81227,-0.35397 c -0.579993,-0.44814 -1.015619,-1.7297 -0.695092,-2.04486 0.339736,-0.33405 0.886748,0.14546 1.282551,1.12431 0.367982,0.91003 0.04797,1.41154 -0.587459,0.92055 z m 3.653073,-0.21001 c -0.419033,-0.42618 -0.368814,-1.21528 0.07711,-1.21152 0.435564,0.004 0.976162,0.9191 0.752505,1.27424 -0.20628,0.32756 -0.465103,0.30798 -0.829605,-0.0627 z m 10.387434,-0.5563 c -0.08445,-0.24376 -0.18481,-0.50573 -0.223031,-0.58213 -0.03822,-0.0764 0.02931,-0.29581 0.150076,-0.48758 0.316795,-0.50302 1.011596,0.13241 1.004956,0.9191 -0.0059,0.70799 -0.700062,0.82017 -0.932001,0.15061 z m 5.648358,-0.43634 c -0.0918,-0.0935 -0.162767,-0.66218 -0.157688,-1.264 0.01046,-1.2398 0.643736,-1.55654 0.910273,-0.4553 0.270958,1.11952 -0.226003,2.25483 -0.752585,1.7193 z m -22.11702,-1.51694 c -0.314842,-0.6004 -0.330085,-1.53458 -0.02499,-1.532 0.36707,0.003 1.077567,1.28428 0.925933,1.66968 -0.197406,0.50173 -0.597722,0.44055 -0.900934,-0.13768 z m 3.530726,-0.49187 c 0.0023,-0.28056 0.172606,-0.50361 0.383034,-0.50185 0.210427,0.002 0.376878,0.22769 0.374509,0.50826 -0.0023,0.28055 -0.172606,0.50359 -0.383033,0.50183 -0.210429,-0.002 -0.376878,-0.22766 -0.37451,-0.50824 z m -5.631682,-0.97349 c -0.268813,-0.27337 -0.182413,-1.3031 0.12498,-1.4895 0.352289,-0.21363 0.717468,0.34556 0.716243,1.09678 -9.01e-4,0.53805 -0.478904,0.76122 -0.841223,0.39272 z m -2.423,-1.09814 c -0.314736,-0.60022 -0.326328,-2.210695 -0.01726,-2.398134 0.339386,-0.205807 0.697614,0.387606 0.832015,1.378275 0.195959,1.444359 -0.279847,2.039949 -0.814755,1.019859 z m 28.446941,-0.44996 c -0.273042,-0.277676 -0.184106,-0.966619 0.189594,-1.468748 0.339584,-0.456275 0.357154,-0.455061 0.618008,0.04236 0.475388,0.906572 -0.180202,2.064468 -0.807602,1.426368 z M 60.281743,98.587973 c -0.321952,-0.394666 0.04014,-1.076839 0.438436,-0.826017 0.329868,0.207745 0.370504,1.156982 0.04942,1.154272 -0.121877,-0.001 -0.34141,-0.148746 -0.48785,-0.328255 z M 89.434458,98.44807 c -0.306101,-0.504761 -0.440616,-3.016048 -0.170333,-3.179956 0.422178,-0.256021 1.079046,1.289871 0.983341,2.314233 -0.08212,0.879098 -0.521301,1.346732 -0.813008,0.865723 z M 53.876384,94.1441 c -0.314978,-0.320335 -0.159084,-1.095647 0.219661,-1.092452 0.23568,0.002 0.376761,0.241683 0.373447,0.634485 -0.0051,0.613075 -0.252688,0.804188 -0.593108,0.457967 z m 33.936957,-1.586533 c 0.0081,-0.966114 0.602231,-0.874408 0.710312,0.109647 0.05258,0.478809 -0.04101,0.674643 -0.321339,0.672277 -0.273525,-0.0023 -0.393518,-0.243517 -0.388973,-0.781924 z m -32.908897,0.08528 c -0.09468,-0.09628 -0.169351,-0.50536 -0.165943,-0.909044 0.0047,-0.5631 0.108904,-0.713294 0.447376,-0.645141 0.299344,0.06027 0.439194,0.324501 0.434997,0.821874 -0.006,0.713737 -0.369439,1.085211 -0.71643,0.732311 z m 35.229445,-0.940394 c -0.38098,-0.855219 -0.36006,-1.127554 0.08632,-1.123787 0.405526,0.0034 0.886366,0.756392 0.881104,1.379766 -0.0052,0.6254 -0.650901,0.454572 -0.967433,-0.255979 z M 90.254551,89.2601 c -0.476316,-0.692399 -0.500471,-1.715762 -0.0404,-1.711878 0.384085,0.0032 0.915556,1.047865 0.909317,1.787285 -0.0055,0.654904 -0.38943,0.621591 -0.86891,-0.0754 z M 57.222082,88.378205 c -0.22038,-0.224132 -0.228503,-1.175749 -0.01468,-1.719224 0.266468,-0.677257 0.8607,-0.456662 0.854171,0.317088 -0.0065,0.780015 -0.553321,1.693183 -0.839498,1.402136 z m 31.239726,-0.202603 c -0.248081,-1.025001 0.02276,-1.334734 0.507772,-0.580697 0.421428,0.655175 0.364233,1.208551 -0.12448,1.204425 -0.128044,-0.0011 -0.300523,-0.281757 -0.383292,-0.623728 z M 55.164399,85.987487 c -0.206857,-0.341104 0.09208,-1.226578 0.70057,-2.075223 1.005284,-1.40201 1.337462,-0.386793 0.438302,1.339559 -0.520533,0.999402 -0.849907,1.212164 -1.138872,0.735664 z m 33.489924,-1.138083 c -0.28476,-0.368367 -0.51592,-0.885694 -0.513691,-1.149617 0.0034,-0.401613 0.08602,-0.435093 0.506796,-0.205317 0.653831,0.35705 1.339684,1.430577 1.128356,1.766147 -0.263219,0.417967 -0.566424,0.306788 -1.121461,-0.411213 z m -18.867107,-1.10371 c -1.987532,-0.670848 -3.504454,-1.92546 -2.825707,-2.337076 0.135315,-0.08205 0.895867,0.102163 1.690111,0.409377 2.053194,0.794177 4.7426,0.95161 7.457979,0.436568 1.222592,-0.231895 2.284391,-0.359089 2.359551,-0.28265 0.231972,0.235919 -0.861367,1.006367 -2.128931,1.500208 -1.569084,0.611316 -5.113925,0.759303 -6.553003,0.273573 z m -11.3947,23.862856 c -0.171138,-0.20979 -0.432594,-0.38245 -0.581015,-0.38372 -0.148424,-10e-4 -0.0507,0.16643 0.217174,0.37261 0.629384,0.48444 0.753059,0.48823 0.363841,0.0111 z m -1.508207,-1.22436 c -0.266372,-0.46029 -0.863062,-1.17797 -1.325983,-1.59482 -1.254715,-1.12987 -2.626933,-3.38463 -2.968198,-4.877175 -0.287579,-1.257756 -0.503907,-1.567033 -0.784478,-1.121517 -0.219501,0.348553 0.967511,3.470702 1.772479,4.662092 0.655493,0.97017 3.39513,3.765 3.693099,3.76752 0.05356,4.5e-4 -0.120547,-0.37579 -0.386919,-0.8361 z m 32.01833,-3.25812 c 0.27249,-0.43268 -1.243621,0.68326 -1.821138,1.34048 -0.344727,0.39228 -0.161104,0.31487 0.56671,-0.23893 0.592173,-0.45062 1.156665,-0.9463 1.254428,-1.10155 z m 1.980041,-1.87231 c 0.580856,-0.63358 0.65318,-0.81522 0.325744,-0.81798 -0.242432,-0.002 -0.652812,0.44956 -0.967887,1.06511 -0.300854,0.58774 -0.447439,0.95583 -0.325745,0.81797 0.121692,-0.13786 0.557241,-0.61716 0.967888,-1.0651 z m 1.722922,-3.250899 c -0.175441,-0.3198 -0.254059,-0.255407 -0.398301,0.326229 -0.09884,0.398574 -0.241846,0.951418 -0.317789,1.228581 -0.07594,0.277144 0.103296,0.130334 0.3983,-0.326236 0.363589,-0.562717 0.465963,-0.958481 0.31779,-1.228574 z m 1.338119,-2.720918 c 0.164039,-0.712538 0.151776,-0.728055 -0.212705,-0.269195 -0.212733,0.267819 -0.382515,0.834581 -0.377296,1.259483 0.0078,0.642261 0.04375,0.687653 0.212707,0.269195 0.111769,-0.276851 0.281552,-0.843614 0.377294,-1.259483 z m 6.948439,-2.994969 c 0.1571,-0.287651 0.74994,-0.935429 1.31746,-1.439509 0.92832,-0.824558 1.17319,-0.915315 2.44099,-0.904614 1.75281,0.0148 1.79778,-0.577241 0.0537,-0.706783 -0.91391,-0.06788 -1.18006,-0.192992 -1.2837,-0.60339 -0.21322,-0.844405 0.0589,-1.150692 1.31103,-1.475939 1.6286,-0.423022 1.93478,-0.77285 0.51697,-0.590697 -1.29812,0.166779 -1.7563,-0.180684 -1.15211,-0.873703 0.67051,-0.7691 0.84327,-1.221704 0.28216,-0.739176 -0.49045,0.421751 -0.78253,0.982924 -2.29002,4.399867 -0.49578,1.123786 -0.828,1.571341 -1.16427,1.568503 -0.2588,-0.0022 -0.47571,-0.08924 -0.48199,-0.193468 -0.007,-0.104232 -0.0518,-1.042133 -0.10123,-2.084248 -0.0495,-1.042116 -0.2304,-2.46414 -0.402226,-3.160054 -0.261555,-1.059261 -0.415884,-1.278267 -0.947763,-1.344928 -0.799017,-0.100132 -2.420706,1.219463 -3.542808,2.882863 -0.697942,1.034626 -0.797367,1.380904 -0.74717,2.602209 l 0.05791,1.408774 0.639976,-0.327165 c 0.351988,-0.179942 0.852754,-0.326069 1.112812,-0.324731 0.391624,0.0021 0.419394,-0.06307 0.161678,-0.378991 -0.404997,-0.496458 0.08648,-1.135669 0.868125,-1.129073 1.514002,0.01279 2.399495,1.617789 2.410042,4.36842 l 0.007,1.839037 0.323904,-1.135103 c 0.17815,-0.624306 0.45243,-1.370451 0.60949,-1.6581 z M 46.959448,85.306246 c 0.322912,-1.116935 1.846009,-3.158155 2.353325,-3.153875 0.144259,0.0012 0.203016,0.221304 0.130572,0.489079 -0.100884,0.372893 0.183274,0.699862 1.213848,1.396724 1.286593,0.869983 1.357295,0.888384 1.613187,0.419798 0.485939,-0.88985 -0.568201,-4.284309 -1.869803,-6.020997 -1.254766,-1.674201 -2.36026,-0.83608 -3.623325,2.747 -0.475955,1.350191 -1.004915,2.453714 -1.175468,2.452274 -0.370343,-0.0031 -0.953876,-1.2092 -0.745293,-1.540412 0.08049,-0.127804 -0.01138,-0.233703 -0.204172,-0.235331 -0.192779,-0.0016 -0.613487,-0.576988 -0.9349,-1.278576 -0.66198,-1.444974 -1.299771,-2.178263 -1.056644,-1.214857 0.08104,0.321128 0.363175,0.956919 0.626965,1.412862 0.666804,1.152519 0.262558,1.597978 -1.384589,1.525758 -1.324602,-0.05809 -1.637511,0.06882 -1.347795,0.54655 0.129987,0.214344 0.689716,0.261197 1.899825,0.159024 2.010611,-0.169767 2.06792,-0.131188 3.100088,2.086795 0.397484,0.854143 0.802557,1.504563 0.900156,1.445376 0.09761,-0.0592 0.324412,-0.615924 0.504023,-1.237192 z M 62.787846,81.23177 c 0.458983,-1.806825 1.23899,-2.873082 2.951901,-4.03519 l 0.615204,-0.417381 -0.564497,-0.586558 -0.564496,-0.586555 -1.16579,1.310192 c -1.265926,1.422733 -2.049612,1.729447 -1.781234,0.697127 0.08674,-0.333595 0.218494,-0.815453 0.292815,-1.070793 0.07432,-0.255337 -0.17527,0.158148 -0.55465,0.918856 -0.503023,1.008621 -0.6895,1.759176 -0.688735,2.772047 0.0011,1.442899 0.372911,2.781008 0.773692,2.78439 0.127361,0.0011 0.435963,-0.802685 0.68579,-1.786135 z M 42.201757,81.082229 c 0.209459,-0.132874 0.267206,-0.242543 0.128323,-0.243716 -0.138884,-0.0012 -0.423892,0.10658 -0.633353,0.239453 -0.209461,0.132873 -0.267206,0.242541 -0.128324,0.243714 0.138882,0.0012 0.423892,-0.10658 0.633354,-0.239451 z m -0.412256,-2.946987 c -0.170377,-0.0706 -0.511236,-0.07771 -0.757467,-0.01569 -0.246228,0.06195 -0.106827,0.119724 0.309778,0.128385 0.416606,0.0087 0.618066,-0.04201 0.447689,-0.112635 z m 50.373063,-1.454659 c 3.068413,-2.64859 6.302127,-3.68362 12.012956,-3.845031 6.5028,-0.1838 11.47255,1.065769 15.54501,3.908559 0.59654,0.416418 1.13312,0.709426 1.19242,0.651127 0.22369,-0.219933 -8.47295,-14.719564 -12.8461,-21.417914 l -0.84778,-1.298525 -1.33647,2.992977 c -0.73508,1.646137 -1.67027,3.496743 -2.07821,4.112457 -1.23747,1.867668 -4.431339,5.333416 -6.361386,6.902891 -1.881445,1.529946 -3.037724,2.809713 -3.720233,4.117541 -0.216497,0.414852 -1.150529,1.543366 -2.075628,2.507809 -0.925096,0.964444 -1.682704,1.81603 -1.683568,1.892414 -0.0016,0.135411 0.538822,0.749518 0.660407,0.750544 0.03359,2.85e-4 0.725943,-0.573399 1.538582,-1.274849 z M 55.042554,74.199621 C 53.990589,72.966185 52.640986,71.384685 52.043431,70.685178 51.44588,69.98567 50.66482,68.823697 50.307752,68.10302 c -0.42581,-0.859413 -1.018013,-1.559627 -1.720907,-2.034784 -1.822312,-1.231884 -4.56175,-4.193078 -5.550747,-6.000071 -0.514824,-0.940636 -1.039917,-1.775662 -1.166875,-1.855612 -0.126954,-0.07994 -0.228064,-0.472851 -0.224685,-0.873107 0.0033,-0.400256 -0.09554,-0.791775 -0.219816,-0.870037 -0.124278,-0.07826 -0.357544,-0.711957 -0.518368,-1.408211 -0.160825,-0.696247 -0.393998,-1.266765 -0.518158,-1.267814 -0.488833,-0.0041 -1.928447,2.32549 -3.958782,6.406174 -2.311238,4.645272 -4.075768,8.659669 -3.889589,8.84902 0.0645,0.06561 0.600613,-0.12216 1.191333,-0.417269 3.453354,-1.725197 11.901061,-0.64198 16.333106,2.094329 1.939336,1.197331 4.531186,3.534491 5.600197,5.049893 0.509962,0.72291 0.895348,1.05549 1.048539,0.904862 0.15319,-0.150626 -0.460774,-1.062423 -1.670446,-2.480772 z m 68.287946,1.459974 c 1.79704,-3.765055 6.17154,-5.954901 11.13854,-5.575889 1.17982,0.09002 2.7634,0.338583 3.51905,0.552345 0.75564,0.213762 1.43369,0.329873 1.50677,0.258024 0.24047,-0.236447 -7.7942,-8.068316 -11.50389,-11.213498 -7.26534,-6.159812 -16.45176,-12.847501 -17.12516,-12.467073 -0.17718,0.100097 -0.24295,0.09544 -0.14611,-0.01033 0.0969,-0.105822 -0.41042,-0.594536 -1.12721,-1.086031 -2.13092,-1.461094 -3.43894,-2.187369 -3.44127,-1.910786 -10e-4,0.142852 0.34607,0.866828 0.77171,1.608837 0.42566,0.742012 0.87008,1.52038 0.98763,1.729712 0.94523,1.683398 9.45222,18.825496 11.67258,23.520924 1.53314,3.242203 2.86346,5.895554 2.95624,5.896337 0.0929,7.84e-4 0.44883,-0.585353 0.79112,-1.302526 z m -41.461089,-4.12405 c 1.209625,-0.572044 2.642856,-2.149724 3.256889,-3.585128 0.489271,-1.143759 0.321791,-3.327583 -0.359782,-4.691319 -1.984373,-3.97045 -7.870939,-5.31215 -11.709088,-2.668798 -0.87892,0.605318 -1.01029,0.816895 -0.97347,1.567803 0.171218,3.491776 0.142579,3.95881 -0.313794,5.117322 l -0.479742,1.217835 0.967913,1.008206 c 2.409725,2.510041 6.689377,3.415785 9.611074,2.034079 z m -8.826862,-4.544152 c -0.596804,-0.670753 -0.50404,-1.276856 0.246603,-1.61125 0.752455,-0.3352 1.441147,-0.03092 1.577832,0.69712 0.07006,0.373184 -0.03721,0.421441 -0.633737,0.285087 l -0.718079,-0.164139 0.564718,0.412529 c 0.310595,0.22689 0.563876,0.512301 0.562847,0.634244 -0.0034,0.405376 -1.17973,0.21896 -1.600184,-0.253591 z m -5.347157,1.926352 c 0.663801,-0.314453 1.704893,-1.040888 2.313546,-1.614307 1.08271,-1.020032 1.106816,-1.077644 1.11478,-2.664126 0.01832,-3.652882 -2.386191,-6.068374 -6.058894,-6.086533 -1.947942,-0.0097 -3.163176,0.499072 -4.921685,2.060235 -2.220865,1.971627 -2.595415,3.789808 -1.262898,6.130494 0.617398,1.084514 1.738086,1.942474 3.3413,2.557989 1.318676,0.506275 3.990438,0.318967 5.473851,-0.383752 z m -0.07388,-2.347294 c -0.709703,-0.768338 -0.683305,-1.334587 0.08527,-1.828954 0.813429,-0.523219 1.42579,-0.378006 1.878951,0.445562 0.328752,0.597475 0.321335,0.734846 -0.07143,1.323411 -0.541328,0.811152 -1.18022,0.831399 -1.892772,0.05998 z m 29.066302,1.061802 c 3.699646,-2.405865 8.652306,-9.936373 9.060516,-13.77654 0.17734,-1.668078 0.45665,-2.122348 1.09171,-1.775552 0.24617,0.134442 1.87986,2.576532 3.63037,5.426864 1.75054,2.850333 3.39422,5.452464 3.65265,5.782512 0.46604,0.59521 0.46666,0.59185 0.0764,-0.413371 -0.59767,-1.538998 -5.5244,-11.222115 -7.67798,-15.090496 -2.83607,-5.094311 -3.27647,-6.040219 -2.95798,-6.353375 0.65983,-0.648794 9.43431,4.860561 17.2928,10.857888 4.44071,3.388987 3.87868,2.682201 -1.62424,-2.042661 -3.89146,-3.341233 -7.92251,-6.333289 -11.04227,-8.196118 -1.31286,-0.783922 -2.63778,-1.57953 -2.9442,-1.768017 -0.70362,-0.432763 -0.49725,-1.018681 0.42744,-1.213611 1.78489,-0.376265 10.24439,1.298821 16.06932,3.181918 0.37272,0.120493 0.38848,0.100856 0.0831,-0.103475 -0.7874,-0.526696 -6.36558,-2.359307 -9.2298,-3.032283 -3.48134,-0.817977 -8.65264,-1.184239 -10.3611,-0.733834 -2.311784,0.609457 -2.354154,1.599027 -0.25497,5.956043 1.90721,3.958623 2.19329,5.1752 2.01818,8.582139 -0.22696,4.416175 -1.3808,6.57393 -6.333495,11.844318 -1.549969,1.649386 -2.820444,3.140917 -2.823279,3.314509 -0.0084,0.514825 0.591303,0.369736 1.847027,-0.446857 z M 32.749985,62.8201 c 0.736558,-2.007732 2.275752,-5.972133 3.420428,-8.809777 1.947068,-4.826772 3.044244,-7.980988 3.050911,-8.770899 0.0033,-0.400296 -2.877744,1.070014 -5.94549,3.034137 -4.622735,2.9597 -11.064419,7.972522 -14.504264,11.286988 l -1.273014,1.22662 2.648983,0.309344 c 1.456939,0.170139 2.989134,0.4005 3.404872,0.511905 2.214797,0.593511 5.21047,2.778185 6.466994,4.716227 0.974924,1.503706 0.820565,1.701821 2.73058,-3.504545 z m 55.931364,3.726854 c 1.235966,-0.450579 1.49289,-0.662034 1.898269,-1.56231 1.005528,-2.233091 2.632124,-9.619236 3.532604,-16.041039 0.615827,-4.391799 0.920904,-12.223614 0.486805,-12.496992 -0.222994,-0.140432 -1.371741,0.85014 -3.661711,3.157523 -3.739251,3.767681 -6.975204,7.608349 -8.984405,10.66335 -1.464109,2.226191 -4.450167,7.243034 -4.452169,7.480038 -6.83e-4,0.08088 0.217775,0.148904 0.485461,0.151162 0.605664,0.0051 1.023723,-0.515418 3.235463,-4.028535 2.672549,-4.245061 9.078914,-11.524565 10.134415,-11.515658 0.484847,0.004 0.550254,0.773392 0.103132,1.213029 -0.168069,0.165252 -0.21212,0.301249 -0.09791,0.302213 0.114226,9.64e-4 0.05558,0.181925 -0.130358,0.402137 -0.285227,0.337836 -0.270355,0.439016 0.09519,0.647657 0.543916,0.310448 0.313248,0.714816 -0.417115,0.73121 l -0.5534,0.01243 0.540182,0.267092 c 0.407911,0.201699 0.532273,0.482018 0.507887,1.144823 -0.02933,0.797029 -0.0914,0.86695 -0.675122,0.760521 -0.353555,-0.06446 -0.869436,-0.196374 -1.146404,-0.293137 -0.276972,-0.09675 -0.0228,0.08217 0.564842,0.397605 0.587633,0.315443 1.06753,0.679301 1.066441,0.808574 -0.0011,0.131427 -0.474515,0.165694 -1.073922,0.07774 -0.899389,-0.131987 -0.980865,-0.111334 -0.506146,0.12831 0.595793,0.300769 0.773744,0.967793 0.257028,0.963433 -0.235679,-0.002 -0.236249,0.06534 -0.0025,0.303018 0.454143,0.461874 0.359979,0.709278 -0.271173,0.712482 -0.507461,0.0026 -0.521203,0.0308 -0.128494,0.263997 0.820133,0.486999 0.492497,0.814632 -0.636706,0.636697 l -1.071839,-0.168896 1.256694,0.707381 c 1.63108,0.918113 1.428493,1.64317 -0.260398,0.931963 -0.450585,-0.189746 -0.466845,-0.166377 -0.155297,0.223188 0.500502,0.625836 0.186009,0.777504 -0.977896,0.471595 -0.55932,-0.147011 -1.017263,-0.229646 -1.017651,-0.18364 -3.88e-4,0.046 0.564845,0.397674 1.256069,0.781482 0.691225,0.383807 1.255488,0.850224 1.253917,1.036475 -0.0036,0.431835 -0.222227,0.423828 -1.420787,-0.05203 -0.57507,-0.228327 -0.779615,-0.255933 -0.498982,-0.06736 1.739484,1.168936 2.183199,2.147481 0.698604,1.540665 -1.485304,-0.607105 -1.650765,-0.620538 -0.747448,-0.06069 0.51814,0.321132 0.940709,0.745241 0.939044,0.942464 -0.003,0.353917 -0.275744,0.334412 -1.388091,-0.09925 -0.276876,-0.107944 -0.01078,0.17547 0.591255,0.629807 0.733395,0.553443 1.010205,0.90911 0.838746,1.077698 -0.171456,0.168587 -0.451561,0.154316 -0.848738,-0.04326 -0.500363,-0.248883 -0.48523,-0.209734 0.09704,0.25102 0.864804,0.684325 0.883566,1.107279 0.04164,0.938961 l -0.643802,-0.12871 0.513927,0.556382 c 0.610453,0.660885 0.646159,0.903747 0.132232,0.899411 -0.236931,-0.002 -0.380793,0.23617 -0.384167,0.636014 -0.0029,0.351568 -0.172734,0.701814 -0.377258,0.778321 -0.359763,0.134583 -0.364405,1.24213 -0.01283,3.061586 0.13507,0.69903 0.234119,0.701587 2.015871,0.05203 z M 47.466303,62.101779 c -1.774807,-1.840619 -2.488668,-2.801225 -3.163242,-4.256619 -1.26911,-2.738104 -1.860295,-5.419832 -1.830728,-8.304505 0.03099,-3.025523 0.488332,-5.12718 1.821377,-8.370336 1.169193,-2.844528 1.281317,-3.71642 0.562953,-4.377644 -1.250612,-1.151134 -7.657129,-2.142927 -12.240178,-1.894901 -3.899054,0.211008 -7.09917,0.576558 -9.731893,1.111675 -2.584947,0.525409 -8.236888,2.238541 -8.861316,2.685913 -0.308252,0.220847 -0.284274,0.239723 0.125432,0.09875 0.278596,-0.09586 2.214617,-0.587143 4.302271,-1.091736 6.132283,-1.482186 9.058054,-1.817218 15.419403,-1.76568 5.422508,0.04395 5.585404,0.06035 6.812585,0.686952 1.128544,0.576227 1.264334,0.736659 1.326483,1.567194 0.05762,0.769895 -0.07684,1.068892 -0.800805,1.780734 -0.835486,0.821502 -6.505775,4.926516 -9.725309,7.040653 -0.84949,0.557829 -2.85238,2.239689 -4.450867,3.737471 l -2.906333,2.723239 2.28741,-1.731632 c 5.309322,-4.0193 10.93677,-7.646468 12.313571,-7.936707 0.401786,-0.08469 0.978003,-0.01885 1.280481,0.146323 0.487954,0.266469 0.533205,0.446677 0.401383,1.598532 -0.08204,0.71686 -0.862328,3.045003 -1.742477,5.19901 -0.876647,2.145442 -2.046765,5.007311 -2.600265,6.359708 -0.553497,1.352397 -1.004388,2.541809 -1.001973,2.643136 0.0024,0.101328 0.697017,-1.114291 1.543573,-2.701381 1.902979,-3.567626 2.638915,-4.624455 3.481756,-4.999927 0.960061,-0.427683 1.38959,0.09482 2.339177,2.845501 1.552625,4.497512 3.185401,7.092403 5.568292,8.849414 1.959791,1.445039 1.714365,0.685247 -0.530761,-1.643134 z m 88.277297,0.0087 c -0.0167,-2.029178 0.0685,-2.524307 0.64867,-3.763615 0.86395,-1.845793 2.4877,-3.563864 3.90646,-4.133318 0.6185,-0.248254 1.12556,-0.521489 1.12681,-0.607191 0.009,-0.605845 -10.33618,-6.35178 -15.00271,-8.333008 -2.54033,-1.078517 -7.69197,-2.719706 -10.4286,-3.3223 -1.02614,-0.225954 -2.37464,-0.595331 -2.99666,-0.82084 -0.62201,-0.225507 -1.92672,-0.480176 -2.89934,-0.565926 l -1.76843,-0.155912 0.98934,0.811978 c 0.54414,0.446585 1.33509,0.982195 1.75767,1.190239 2.63955,1.299452 12.1171,9.53317 19.56543,16.997678 2.75601,2.761969 5.03561,5.025592 5.06577,5.030273 0.0302,0.0046 0.0463,-1.042945 0.0356,-2.328058 z M 58.167255,60.4999 c 0.316138,-0.343461 0.268638,-0.446804 -0.386795,-0.841476 -0.856262,-0.515602 -0.928776,-0.795414 -0.299315,-1.154965 0.369042,-0.210796 0.307941,-0.256101 -0.361632,-0.268134 -0.894516,-0.01605 -1.339359,-0.459939 -0.798136,-0.79638 0.276698,-0.172003 0.257456,-0.219067 -0.092,-0.225078 -0.24303,-0.004 -0.440881,-0.12479 -0.439673,-0.268032 0.0012,-0.143244 0.201718,-0.337302 0.445573,-0.431241 0.349936,-0.134806 0.28399,-0.203088 -0.312931,-0.32401 l -0.756307,-0.153204 0.888636,-0.565326 0.888636,-0.565325 -0.822062,0.157646 c -0.6556,0.125725 -0.821366,0.07523 -0.818628,-0.249327 0.0019,-0.223835 0.260037,-0.515239 0.573665,-0.647562 0.436991,-0.184373 0.319174,-0.207782 -0.504221,-0.100182 -0.858572,0.112193 -1.073798,0.06325 -1.071208,-0.243548 0.0018,-0.211176 0.259599,-0.46308 0.572922,-0.559795 0.548603,-0.169333 0.551083,-0.182553 0.067,-0.357268 -0.440376,-0.158937 -0.377042,-0.24629 0.511013,-0.704759 l 1.013692,-0.523332 -0.805676,-0.01796 c -1.042463,-0.02324 -1.288667,-0.444866 -0.472172,-0.808595 0.352033,-0.156825 0.577888,-0.387662 0.501894,-0.51297 -0.07598,-0.125306 5.79e-4,-0.392144 0.170111,-0.592968 0.260252,-0.308251 0.16578,-0.366334 -0.606445,-0.372852 -0.503095,-0.0042 -0.91376,-0.121352 -0.912589,-0.260235 0.0012,-0.138884 0.129677,-0.251436 0.285566,-0.250123 0.199615,0.0017 0.194104,-0.10711 -0.01863,-0.367895 -0.359428,-0.440596 -0.139987,-0.884347 0.455429,-0.920959 0.234988,-0.01445 0.09341,-0.100876 -0.314631,-0.192055 -1.002367,-0.223994 -0.95367,-0.611197 0.120001,-0.954106 l 0.886255,-0.283055 -0.883058,-0.09571 c -0.485682,-0.05265 -0.882098,-0.209353 -0.880927,-0.348237 0.0012,-0.138882 0.400955,-0.380905 0.888405,-0.537826 l 0.886272,-0.285315 -1.261848,-0.09664 c -1.298145,-0.09944 -1.611734,-0.498321 -0.576909,-0.733835 0.518458,-0.117995 0.532846,-0.153208 0.127804,-0.312804 -0.610252,-0.240456 -0.325321,-0.626713 0.667406,-0.904748 l 0.810215,-0.226917 -1.072996,-0.03184 c -1.205835,-0.03578 -1.434817,-0.449749 -0.373107,-0.674535 1.209355,-0.256045 1.230104,-0.310747 0.12914,-0.340492 -0.776616,-0.02098 -1.072134,-0.133622 -1.069819,-0.407766 0.0017,-0.208325 0.202147,-0.38842 0.445307,-0.400215 0.289523,-0.01403 0.23119,-0.08232 -0.169006,-0.19779 -0.807096,-0.232902 -0.980811,-0.796869 -0.243538,-0.790648 0.312487,0.0026 0.483651,-0.08114 0.380371,-0.186189 -0.103283,-0.105042 -0.320345,-0.193884 -0.482355,-0.197431 -0.277038,-0.006 -0.269146,-1.601611 0.0093,-1.881025 0.745917,-0.748502 5.622502,6.496163 10.246592,15.222354 2.035598,3.84142 2.668139,4.827797 3.098283,4.831426 0.454992,0.0038 0.144814,-0.813378 -1.977005,-5.208754 C 60.609947,44.378642 56.807138,38.51272 52.69307,34.199684 l -1.82128,-1.909366 -0.245042,1.386861 c -0.134773,0.762775 -0.211869,3.773577 -0.171325,6.690673 0.07284,5.240736 0.528644,9.327885 1.677256,15.039854 0.837033,4.162515 0.944323,4.384093 2.927141,6.045175 l 1.815428,1.520852 0.465816,-1.041141 c 0.2562,-0.572628 0.628,-1.217337 0.82622,-1.432685 z m -7.801414,0.638009 c -0.06858,-0.174195 -0.127099,-0.03265 -0.130028,0.314568 -0.0029,0.347208 0.05318,0.48973 0.124701,0.316718 0.0715,-0.173013 0.07392,-0.457092 0.0053,-0.631286 z m 1.100939,-0.654254 c 0.0028,-0.331133 -0.645918,-0.8146 -0.838693,-0.625051 -0.34862,0.342784 -0.153455,0.838291 0.331794,0.842385 0.277765,0.0023 0.50587,-0.09546 0.506899,-0.217334 z M 25.411501,50.783698 c 2.098251,-1.760105 4.100609,-3.378868 4.449684,-3.597254 0.349076,-0.218384 1.092649,-0.800816 1.652385,-1.294293 0.559739,-0.493478 2.875951,-2.271853 5.147141,-3.95194 2.271192,-1.680092 4.130906,-3.228291 4.132695,-3.440445 0.0071,-0.846829 -1.695646,-1.229064 -6.110614,-1.371679 -9.973142,-0.322164 -15.683906,0.855743 -24.039711,4.958454 l -2.838053,1.393485 1.1279293,0.459482 c 1.4134797,0.575807 3.1813777,1.599028 4.0712117,2.356325 1.11418,0.948226 2.355286,3.342069 2.68627,5.181279 0.29993,1.666644 0.158913,6.541022 -0.228956,7.914154 -0.126325,0.447208 0.737323,-0.245428 2.978554,-2.388774 1.736057,-1.660233 4.873215,-4.45869 6.971464,-6.218794 z"
       style="fill:#000000;stroke-width:0.252524"
       sodipodi:nodetypes="cssscccscscccccccccccccsccccscsscsccccsccccsccccccsssccccsccssccccccccccccsccccccccscccssccccccccscccsccscccccccccccsccscscccccccccccccccccccccccccscccccccccccccccccccccccccccsccccccccsccccccccccccsscscsccccscscssccccccccccscccscsccccccsscssscsssccsscccsccccccccccccccccccccccccscccccccccccccccccccccccccccccccccccccccccccccccccccccccccccccccccccccccccccccccccccccccccccccccccccccccccccccsccccccscssccsccccccccccccccccccccccccscccccccccscccccccccccscccccccccccccccccccccccccccccccccccscsccccccsccccccccscccccccsccccsccscccccccccsscsccccccccccccsccccccsscscsccscccscscccssccsccccccccccscccccsccscccccccsscsccscssccscscccscccccccccccccccccccscccsccccccsccccccsccccccccccscssscssccccccccsccssccscsscccccccccsccccccccsccccccccccccccccccccccccccccccccccccsccccscccccccccccscsssscccccccccccccsccccsscssscss" />
  </g>
  <g
     id="g1656"
     inkscape:groupmode="layer"
     inkscape:label="B.Mask-disabled" />
  <g
     id="g1658"
     inkscape:groupmode="layer"
     inkscape:label="F.Mask-disabled" />
  <g
     id="g1660"
     inkscape:groupmode="layer"
     inkscape:label="Dwgs.User-disabled" />
  <g
     id="g1662"
     inkscape:groupmode="layer"
     inkscape:label="Cmts.User-disabled" />
  <g
     id="g1664"
     inkscape:groupmode="layer"
     inkscape:label="Eco1.User-disabled" />
  <g
     id="g1666"
     inkscape:groupmode="layer"
     inkscape:label="Eco2.User-disabled" />
  <g
     style="display:inline;opacity:1"
     id="g1668"
     inkscape:groupmode="layer"
     inkscape:label="Edge.Cuts">
    <path
       sodipodi:nodetypes="cccccccccccccccccccccccccccscscccccccccccccccccccccccccccccccccccsccsc"
       inkscape:connector-curvature="0"
       id="path1790-1"
       d="M0.76683252 46.519608L1.6994125 45.649714L2.6488025 44.814751L3.6148025 44.01437L4.5971925 43.248221L5.5957625 42.515956L6.6102925 41.817225L7.6405825 41.15168L8.6864125 40.518971L9.7475625 39.91875L10.823833 39.350667L11.915003 38.814373L13.020863 38.309519L14.141193 37.835756L15.275793 37.392735L16.424443 36.980107L17.586933 36.597523L18.763043 36.244633L19.952563 35.921089L21.155283 35.626542L22.370993 35.360642L23.599473 35.123041L24.840513 34.913388L26.093903 34.731337L27.359433 34.576536L28.636873 34.448637L29.926023 34.347292L31.226683 34.272152L32.538613 34.222862L33.861613 34.199082L35.195483 34.200482L36.539993 34.226662L37.894923 34.277302L39.642843 34.569392L40.504513 34.73354L41.340563 34.916937L42.137923 35.124966L42.883513 35.36301L43.232813 35.494971L43.564273 35.636455L43.876253 35.788135L44.167123 35.950683L44.435243 36.124774L44.678993 36.31108L44.896733 36.510274L45.086823 36.723028L45.247633 36.950017L45.377523 37.191913L45.474823 37.449388L45.538023 37.723117L45.565323 38.013771L45.555223 38.322025L45.506023 38.648551L45.416123 38.994021L45.283873 39.35911L45.107633 39.744489L44.885773 40.150833L44.616653 40.578813L44.250893 41.682391L43.927073 42.755145L43.644323 43.797715L43.401773 44.810741L43.198543 45.794864L43.033783 46.750723L42.906593 47.678958L42.816093 48.580209L42.761493 49.455116L42.741793 50.30432L42.756293 51.12846L42.803993 51.928176L42.883993 52.704108L42.995543 53.456896L43.137703 54.18718L43.309613 54.895601L43.510403 55.582797L43.739203 56.24941L43.995133 56.896079L44.277333 57.523444L44.584933 58.132147L44.917053 58.722824L45.272823 59.296115L45.651383 59.852666L46.051843 60.393112L46.473353 60.918093L46.915033 61.428249L47.376013 61.924224L47.855423 62.406652L48.352383 62.876179L48.866043 63.33344L49.395513 63.779077L49.521673 62.833123L49.655813 61.832429L49.735213 61.343686L49.827713 60.879815L49.937063 60.45367L50.066993 60.078099L50.221213 59.765962L50.308613 59.637697L50.403413 59.530107L50.506193 59.444807L50.617373 59.383387L50.737413 59.347467L50.866773 59.338667L51.005923 59.358567L51.155333 59.408777L51.315453 59.490917L51.486763 59.60658L51.669713 59.757382L51.864783 59.944926L52.072423 60.17082L52.293103 60.43667L51.831573 58.799381L51.406013 57.190483L51.016493 55.605802L50.663113 54.041157L50.345943 52.49237L50.065063 50.955262L49.820553 49.425655L49.612483 47.899371L49.440943 46.372232L49.306003 44.840058L49.207803 43.298671L49.146303 41.743893L49.121703 40.171546L49.134003 38.577451L49.183303 36.957429L49.269703 35.307303L49.262703 34.386203L49.295703 33.597767L49.366903 32.936732L49.474313 32.397833L49.540913 32.172539L49.615813 31.975806L49.698813 31.806974L49.789513 31.665387L49.887813 31.550385L49.993343 31.461315L50.105893 31.397515L50.225223 31.358325L50.351063 31.343085L50.483163 31.351185L50.621283 31.381885L50.765153 31.434565L50.914533 31.508565L51.069163 31.603225L51.393173 31.851906L51.735173 32.175347L52.093133 32.568283L52.465033 33.025449L52.848843 33.541582L54.341613 35.340428L55.728193 37.041785L57.014913 38.657665L58.208133 40.200083L59.314193 41.681051L60.339453 43.112581L61.290243 44.506688L62.172933 45.875384L62.993853 47.230681L63.759363 48.584593L64.475803 49.949134L65.149533 51.336315L65.786893 52.75815L66.394243 54.226652L66.977913 55.753833L67.544263 57.351708L69.310373 55.956059L68.262933 58.691148L69.058513 59.042771L69.456303 59.232705L69.854093 59.444165L70.251883 59.686227L70.649671 59.967969L71.047459 60.298478L71.445249 60.686826L71.627844 60.361502L71.844741 60.05299L72.089478 59.760935L72.355599 59.484977L72.636639 59.22476L72.926138 58.979927L73.504671 58.534983L74.03951 58.147289L74.478962 57.813991L74.646769 57.666845L74.771345 57.532224L74.846235 57.409775L74.864965 57.299138L75.824283 58.207426L75.921153 56.852625L76.545118 58.04462L76.845155 57.212572L77.161681 56.396432L77.494252 55.595658L77.842417 54.809711L78.205725 54.038051L78.58373 53.280136L78.97598 52.535427L79.382025 51.803383L79.801419 51.083465L80.233711 50.375131L80.678452 49.677841L81.135191 48.991056L82.082873 47.646837L83.073161 46.33815L84.102462 45.060674L85.167182 43.810086L86.263729 42.582063L87.388505 41.372284L88.537915 40.176425L89.708371 38.990164L92.098035 36.629146L92.546631 36.190522L92.97284 35.794926L93.374274 35.448483L93.748543 35.157319L94.093271 34.92756L94.406064 34.765332L94.549741 34.711452L94.684543 34.676752L94.810168 34.662002L94.926317 34.668002L95.032698 34.695442L95.129008 34.745122L95.214948 34.817812L95.290218 34.914272L95.354528 35.035276L95.407578 35.181586L95.449068 35.353967L95.478698 35.553186L95.501188 36.035197L95.472658 36.633746L95.390728 37.354959L95.253018 38.20496L95.281608 39.770174L95.268508 41.339178L95.216658 42.911705L95.128998 44.487487L95.008461 46.066258L94.85799 47.647751L94.680516 49.231698L94.478977 50.817833L94.256314 52.405889L94.015459 53.995598L93.49093 57.178908L92.928887 60.36563L92.352828 63.553626L94.212439 64.3118L91.85697 66.234117L93.867226 67.432643L96.038024 65.172336L97.103652 64.026362L98.141692 62.858322L99.141351 61.659577L99.623408 61.045987L100.09182 60.421481L100.54524 59.784978L100.98231 59.135397L101.40168 58.47166L101.80201 57.792684L102.07157 57.167447L102.31099 56.561007L102.52147 55.972866L102.70421 55.402523L102.8604 54.849478L102.99125 54.313232L103.09795 53.793285L103.18175 53.289138L103.24375 52.80029L103.28525 52.326242L103.30735 51.866494L103.31135 51.420546L103.29835 50.987899L103.26965 50.568051L103.22635 50.160507L103.16975 49.764762L103.02122 49.006677L102.83367 48.289801L102.6167 47.610134L102.37989 46.963678L101.88516 45.75441L101.42623 44.630011L101.18285 44.157412L100.89656 43.68481L100.25621 42.739611L99.932616 42.267009L99.627046 41.794409L99.354734 41.321808L99.130918 40.849208L99.041958 40.612908L98.970828 40.376608L98.919438 40.140307L98.889698 39.904007L98.883498 39.667707L98.902758 39.431407L98.949378 39.195107L99.025248 38.958806L99.132291 38.722506L99.272401 38.486206L99.447484 38.249906L99.659444 38.013606L99.910182 37.777305L100.20161 37.541005L100.53563 37.304705L100.91415 37.068405L101.87727 37.021045L102.82832 36.991195L103.76744 36.978465L104.69477 36.982465L105.61045 37.002845L106.51463 37.039215L107.40744 37.091185L108.28903 37.158385L109.15955 37.240435L110.01912 37.336945L110.8679 37.447546L111.70603 37.571854L113.35091 37.860076L114.95488 38.198575L116.51908 38.584314L118.04466 39.014256L119.53275 39.485364L120.98449 39.994602L122.40102 40.538932L123.78347 41.115319L125.13298 41.720726L126.45069 42.352115L127.73773 43.006448L128.99525 43.680693L130.22438 44.371808L131.42626 45.07676L132.60202 45.79251L133.75282 46.516023L135.98402 47.974187L138.12897 49.426958L140.19677 50.850044L142.19653 52.219149L144.13733 53.509979L143.52802 53.648764L142.94312 53.805225L142.38285 53.979238L141.84742 54.170682L141.33707 54.379431L140.852 54.605365L140.39244 54.84836L139.95861 55.108294L139.55073 55.385043L139.16902 55.678484L138.8137 55.988495L138.48498 56.314954L138.18309 56.657736L137.90825 57.01672L137.66067 57.391782L137.44059 57.7828L137.24821 58.189649L137.08375 58.61221L136.94745 59.050357L136.83951 59.50397L136.76021 59.972922L136.70961 60.457091L136.68811 60.95636L136.69611 61.470599L136.73331 61.999689L136.80021 62.543506L136.89701 63.101927L137.02392 63.67483L137.18118 64.262091L137.36901 64.863587L137.58762 65.479198L137.83723 66.108798L142.62588 72.851183L141.75733 72.38885L140.90277 71.979166L140.06273 71.620357L139.23771 71.310644L138.42821 71.048254L137.63476 70.831412L136.85785 70.65834L136.098 70.527263L135.35571 70.436413L134.6315 70.384003L133.92587 70.368263L133.23934 70.387423L132.57241 70.439693L131.9256 70.523313L131.2994 70.636497L130.69434 70.777475L130.11091 70.944466L129.54964 71.135702L129.01103 71.349403L128.49558 71.583795L128.00381 71.837102L127.53623 72.107548L127.09335 72.393356L126.67567 72.692756L126.28371 73.00397L125.91797 73.325216L125.57896 73.654728L125.2672 73.990728L124.98319 74.331437L124.72744 74.675083L124.50046 75.019891L124.30276 75.364082L124.10416 75.780407L123.94992 76.194747L123.83564 76.606661L123.75694 77.015709L123.70934 77.421453L123.68844 77.823448L123.68944 78.221257L123.70884 78.614438L123.78364 79.385162L123.87724 80.132094L123.95434 80.851715L123.97564 81.200185L123.97964 81.540502L123.13761 80.859505L122.37216 80.1875L120.98706 78.898222L120.32546 78.294824L119.65655 77.728169L119.31279 77.460789L118.95933 77.205196L118.59355 76.962258L118.21284 76.732843L117.04821 76.092806L115.90749 75.51657L114.79033 75.002347L113.69638 74.548348L112.62531 74.152785L111.57677 73.813867L110.55041 73.529805L109.54589 73.298814L108.56287 73.119095L107.601 72.98887L106.65995 72.90634L105.73936 72.86972L104.83889 72.87722L103.95819 72.92705L103.09694 73.01743L102.25477 73.146557L101.43135 73.312649L100.62633 73.513915L99.839362 73.748566L99.070118 74.014814L98.318246 74.310866L97.583397 74.634936L96.865234 74.985234L96.16341 75.359968L95.477581 75.757351L94.807405 76.175597L94.152535 76.612911L93.512629 77.067507L92.887345 77.537592L92.276335 78.021383L91.679257 78.517085L91.095769 79.022913L92.16459 80.783575L92.6797 81.675488L93.167375 82.583858L93.616698 83.515244L93.82356 83.991613L94.01674 84.476195L94.194865 84.969807L94.356576 85.473269L94.500507 85.9874L94.62529 86.513018L95.336831 85.627596L96.014461 84.851771L96.65794 84.189927L96.966802 83.903118L97.267043 83.646451L97.558627 83.420476L97.841528 83.225737L98.115718 83.062783L98.381169 82.932164L98.637847 82.834424L98.885729 82.770124L99.124781 82.739804L99.354973 82.744004L99.576281 82.783284L99.788673 82.858194L99.992122 82.969274L100.18659 83.117078L100.37206 83.302149L100.54849 83.525042L100.71588 83.786302L100.87416 84.086477L101.02332 84.426115L101.16333 84.805768L101.29417 85.225982L101.41579 85.687304L101.52818 86.190285L101.63131 86.735473L101.72511 87.323416L101.80961 87.954662L101.9606 87.348144L102.1286 86.843647L102.31038 86.42191L102.50276 86.06368L102.7025 85.749701L102.90642 85.460715L103.3139 84.880706L104.36324 84.073851L104.80185 83.764559L105.18183 83.519391L105.50224 83.339366L105.76216 83.225515L105.96064 83.178865L106.03654 83.180965L106.09674 83.200335L106.14114 83.237025L106.16954 83.291155L106.18194 83.362845L106.17794 83.452235L106.12134 83.684614L105.99858 83.989313L105.80876 84.367355L105.55095 84.819769L105.22421 85.347575L104.8276 85.951802L106.46876 85.442431L106.7964 85.578136L107.14716 85.735844L107.31049 85.824364L107.45476 85.920094L107.57167 86.023588L107.65297 86.135417L107.69037 86.256152L107.67547 86.386356L107.60017 86.526596L107.45604 86.67744L107.23487 86.839458L106.92836 87.013212L106.52822 87.199272L106.02619 87.398207L104.00708 87.522829L104.00708 88.722034L105.39559 88.468029L105.7129 88.346852L106.00256 88.281732L106.26281 88.267502L106.49184 88.298982L106.68787 88.370992L106.84911 88.478368L106.97377 88.615938L107.06007 88.778527L107.10617 88.96096L107.11017 89.158064L107.07057 89.364669L106.98547 89.5756L106.85305 89.785682L106.67153 89.989747L106.4391 90.182618L106.15398 90.359118L105.7687 90.331938L105.40261 90.321808L105.05551 90.328608L104.72721 90.352078L104.41751 90.392078L104.12621 90.448438L103.85311 90.520978L103.59802 90.609518L103.36074 90.713889L103.14107 90.833914L102.93881 90.969418L102.75377 91.120228L102.58575 91.286164L102.43455 91.467052L102.29997 91.662716L102.18182 91.872983L100.79602 94.518589L100.67409 94.93263L100.55845 95.274181L100.44879 95.54717L100.34474 95.755529L100.24594 95.903185L100.15214 95.994065L100.06294 96.032095L99.97794 96.021225L99.89684 95.965355L99.81934 95.868425L99.74507 95.734363L99.67369 95.567099L99.53822 95.148671L99.410199 94.644579L99.032255 90.865138L98.428875 90.858838L97.849745 90.909078L97.294702 91.015517L97.026158 91.089687L96.763572 91.177757L96.506923 91.279683L96.256194 91.395414L95.772395 91.668091L95.312009 91.995404L94.87487 92.376955L94.76606 93.358183L94.616856 94.29308L94.428899 95.183525L94.203837 96.031406L93.943307 96.838605L93.648955 97.60701L93.322422 98.338499L92.965351 99.034964L92.579388 99.698274L92.166169 100.33034L91.727342 100.93301L91.264546 101.5082L90.779427 102.05778L90.273623 102.58364L89.748782 103.08766L89.206545 103.57172L88.648552 104.03771L88.076449 104.48752L87.491876 104.92303L86.896476 105.34612L85.679769 106.16256L84.439468 106.95195L81.940648 108.50983L80.708409 109.30845L79.505142 110.14033L78.931838 110.70798L78.402417 111.29758L77.913285 111.90732L77.460842 112.53541L77.041493 113.18006L76.65164 113.83943L76.287687 114.51177L75.946033 115.19525L75.623086 115.88809L75.315246 116.58848L74.730498 118.00473L74.163014 119.42961L73.584016 120.84874L73.18245 120.03866L72.766501 119.24025L72.333738 118.45552L71.881737 117.6864L71.408067 116.93491L70.910306 116.20298L70.386022 115.4926L69.832782 114.80575L69.248172 114.14437L68.629762 113.51049L67.975112 112.90602L67.281812 112.33298L66.547422 111.79332L65.769512 111.289L64.945662 110.82201L64.073442 110.39433L62.917862 110.10548L61.823212 109.78086L60.788462 109.42119L59.812572 109.02725L58.894502 108.59974L58.033212 108.13944L57.227672 107.64708L56.476832 107.12339L55.779652 106.56912L55.135102 105.98501L54.542142 105.37179L53.999732 104.73022L53.506832 104.06105L53.062402 103.36498L52.665402 102.64279L52.314802 101.89521L52.009552 101.12297L51.748622 100.32684L51.530972 99.507523L51.355562 98.665794L51.221352 97.802381L51.127352 96.918022L51.072452 96.013462L51.055652 95.089444L51.075852 94.146705L51.132052 93.185992L51.223252 92.208045L51.348362 91.213603L51.506362 90.203411L51.696212 89.178208L51.916882 88.138734L52.167312 87.085735L51.911872 86.939611L51.669242 86.780681L51.217202 86.429584L50.800862 86.042801L50.409832 85.630691L49.662322 84.771935L49.285122 84.346012L48.891802 83.936201L47.631982 86.455828L47.532082 86.8404L47.409222 87.179083L47.259932 87.464875L47.174232 87.585747L47.080632 87.690771L46.978682 87.779071L46.867942 87.849771L46.747952 87.902001L46.618302 87.934881L46.478532 87.947531L46.328212 87.939131L46.166902 87.908711L45.994172 87.855441L45.807972 87.692543L45.642992 87.520548L45.497542 87.340187L45.369902 87.152187L45.258382 86.957282L45.161282 86.756198L45.003502 86.338416L44.882952 85.904682L44.785952 85.460835L44.608332 84.56616L40.954872 84.160162L40.869572 84.192012L40.786972 84.203602L40.706772 84.196702L40.628772 84.172972L40.478912 84.081982L40.335932 83.944481L40.198412 83.774277L40.064902 83.585172L39.804262 83.205484L39.720762 82.946303L39.674162 82.727771L39.661062 82.546066L39.677962 82.397357L39.721362 82.277823L39.787862 82.183643L39.873862 82.110983L39.975982 82.056023L40.214562 81.983913L40.475792 81.936703L40.731842 81.883803L40.849242 81.845653L40.954902 81.794603L40.646262 81.683402L40.378752 81.570483L40.151292 81.455897L39.962792 81.339687L39.812172 81.221899L39.698342 81.102578L39.620242 80.981772L39.576742 80.859518L39.566742 80.73587L39.589242 80.610871L39.643042 80.484564L39.727142 80.356995L39.840452 80.228209L39.981862 80.098254L40.344662 79.835009L42.214692 80.156848L41.792502 79.990081L41.432302 79.826416L41.129032 79.665594L40.877612 79.507368L40.672962 79.351478L40.509992 79.197673L40.383642 79.045699L40.288842 78.895299L40.220442 78.746228L40.173442 78.59822L40.123342 78.304403L40.097842 78.01181L40.056242 77.718419L40.386892 77.669159L40.698472 77.645029L40.991852 77.644812L41.267912 77.667332L41.527542 77.711362L41.771612 77.775712L42.001002 77.859192L42.216592 77.960596L42.419262 78.07873L42.609882 78.21239L42.789342 78.360379L42.958512 78.521497L43.269512 78.878327L43.549902 79.273284L43.806732 79.696774L44.047012 80.139207L44.506062 81.042527L44.738892 81.484225L44.983302 81.906494L45.246302 82.299737L45.534942 82.65436L46.744572 79.57174L46.879542 79.152793L47.037252 78.752235L47.217812 78.376495L47.421312 78.031999L47.647852 77.725183L47.897522 77.462479L48.170432 77.250309L48.315632 77.165189L48.466682 77.095109L48.623582 77.040879L48.786362 77.003309L48.955012 76.983199L49.129562 76.981299L49.310022 76.998519L49.496392 77.035599L49.688702 77.093349L49.886942 77.172579L50.091152 77.274091L50.301322 77.398689L50.517472 77.547173L50.739622 77.720351L50.967762 77.919024L51.201932 78.143997L51.688352 78.676055L53.740462 82.780293L55.957942 78.50233L55.687442 77.998571L55.363132 77.476413L54.987422 76.939341L54.562662 76.390841L54.091262 75.834396L53.575592 75.273492L53.018032 74.711612L52.420982 74.152244L51.786802 73.598868L51.117902 73.054972L50.416652 72.52404L49.685432 72.009558L48.926632 71.515007L48.142632 71.043874L47.335822 70.599644L46.508582 70.185803L45.663302 69.805833L44.802352 69.463218L43.928122 69.161445L43.042992 68.904L42.149362 68.694366L41.249592 68.536023L40.346082 68.432463L39.893672 68.402313L39.441212 68.387153L38.989012 68.387417L38.537362 68.403587L38.086572 68.436057L37.636922 68.485277L37.188722 68.551677L36.742272 68.635687L36.297862 68.737747L35.855792 68.858297L35.416372 68.997766L34.979882 69.156596L34.546622 69.335216L34.116902 69.534066L33.691012 69.753583L33.269242 69.994195L32.851912 70.256347L32.439302 70.540467L32.170612 70.74988L31.913942 70.980789L31.667512 71.231768L31.429502 71.501381L30.971562 72.090785L30.525722 72.737554L29.612702 74.157366L29.116712 74.907508L28.575202 75.669198L28.757362 75.075574L28.915172 74.496472L29.049142 73.931833L29.159802 73.381587L29.247702 72.845668L29.313302 72.32401L29.357102 71.816547L29.379602 71.323216L29.381602 70.843947L29.363102 70.378677L29.324902 69.927338L29.267502 69.489865L29.191402 69.066193L29.097102 68.656253L28.985102 68.260009L28.855972 67.877342L28.710192 67.508211L28.548292 67.152548L28.370762 66.810293L28.178132 66.481374L27.970922 66.165728L27.749622 65.863291L27.514772 65.573993L27.266872 65.297771L27.006432 65.034555L26.733972 64.784283L26.450012 64.546889L26.155052 64.322308L25.849612 64.110469L25.534212 63.911309L25.209352 63.724765L24.875562 63.550767L24.183202 63.240149L23.461252 62.978928L22.713822 62.766579L21.945022 62.602574L21.158952 62.486385L20.359722 62.417485L19.551452 62.395335L18.738242 62.419435L17.924202 62.489235L17.113442 62.604212L16.310072 62.76384L15.518212 62.967591L14.741952 63.214939L13.985402 63.505354L13.252692 63.838311L12.547912 64.213283L12.917002 63.34236L13.257032 62.470584L13.567022 61.599843L13.846032 60.732025L14.093102 59.869021L14.307272 59.012713L14.487602 58.16499L14.633122 57.327741L14.742892 56.502854L14.815892 55.692216L14.851292 54.897715L14.848292 54.121237L14.805492 53.364672L14.722192 52.629905L14.597362 51.918826L14.430092 51.233322L14.219432 50.575279L13.964412 49.946586L13.664092 49.349132L13.317512 48.784802L13.126742 48.515429L12.923882 48.255265L12.708982 48.004325L12.481922 47.762847L12.242572 47.531067L11.990832 47.309219L11.726572 47.097539L11.449672 46.896266L11.160012 46.705632L10.857472 46.525876L10.541932 46.357232L10.213282 46.199936L9.8713915 46.054225L9.5161515 45.920335L9.1474415 45.798501L8.7651315 45.68896L8.3691015 45.59195L7.9592515 45.5077L7.5354415 45.43645L7.0975715 45.37844L6.1791215 45.30307L5.2029615 45.28347L4.9494615 45.29476L4.6954315 45.32298L4.1835515 45.423223L3.6627915 45.570259L3.1286415 45.750152L2.0020415 46.152761L1.4005515 46.347603L0.76758152 46.519553L0.76758152 46.519553"
       style="display:inline;opacity:1;fill:none;fill-opacity:1;stroke:#000000;stroke-width:0.4;stroke-linecap:round;stroke-linejoin:round;stroke-miterlimit:4;stroke-dasharray:none;stroke-dashoffset:0;stroke-opacity:1;paint-order:markers stroke fill" />
  </g>
  <g
     id="g1670"
     inkscape:groupmode="layer"
     inkscape:label="Margin-disabled" />
  <g
     id="g1672"
     inkscape:groupmode="layer"
     inkscape:label="B.CrtYd-disabled" />
  <g
     id="g1674"
     inkscape:groupmode="layer"
     inkscape:label="F.CrtYd-disabled" />
  <g
     id="g1676"
     inkscape:groupmode="layer"
     inkscape:label="B.Fab-disabled" />
  <g
     id="g1678"
     inkscape:groupmode="layer"
     inkscape:label="F.Fab-disabled" />
  <g
     id="g1680"
     inkscape:groupmode="layer"
     inkscape:label="Drill" />
</svg>
